<svg version="1.1" viewBox="0.0 0.0 923.8346456692914 100.0" fill="none" stroke="none" stroke-linecap="square" stroke-miterlimit="10" xmlns:xlink="http://www.w3.org/1999/xlink" xmlns="http://www.w3.org/2000/svg"><clipPath id="p.0"><path d="m0 0l923.83466 0l0 100.0l-923.83466 0l0 -100.0z" clip-rule="nonzero"/></clipPath><g clip-path="url(#p.0)"><path fill="#000000" fill-opacity="0.0" d="m0 0l923.83466 0l0 100.0l-923.83466 0z" fill-rule="evenodd"/><path fill="#ffffff" d="m4.0 18.497375l160.22047 0l0 62.362206l-160.22047 0z" fill-rule="evenodd"/><path stroke="#000000" stroke-width="1.0" stroke-linejoin="round" stroke-linecap="butt" d="m4.0 18.497375l160.22047 0l0 62.362206l-160.22047 0z" fill-rule="evenodd"/><path fill="#000000" d="m19.484375 34.681602q0 0.59375 -0.25 1.0625q-0.234375 0.453125 -0.6875 0.75q-0.4375 0.296875 -1.0625 0.453125q-0.625 0.140625 -1.359375 0.140625q-0.34375 0 -0.6875 -0.03125q-0.328125 -0.015625 -0.640625 -0.0625q-0.3125 -0.03125 -0.59375 -0.078125q-0.265625 -0.046875 -0.484375 -0.109375l0 -1.125q0.484375 0.1875 1.09375 0.296875q0.609375 0.09375 1.390625 0.09375q0.5625 0 0.953125 -0.078125q0.390625 -0.09375 0.640625 -0.265625q0.25 -0.171875 0.359375 -0.421875q0.125 -0.25 0.125 -0.5625q0 -0.34375 -0.203125 -0.59375q-0.1875 -0.25 -0.5 -0.4375q-0.3125 -0.1875 -0.71875 -0.34375q-0.390625 -0.171875 -0.8125 -0.328125q-0.40625 -0.171875 -0.8125 -0.375q-0.40625 -0.203125 -0.71875 -0.46875q-0.3125 -0.265625 -0.5 -0.625q-0.1875 -0.375 -0.1875 -0.875q0 -0.4375 0.171875 -0.859375q0.1875 -0.421875 0.5625 -0.75q0.390625 -0.328125 0.984375 -0.53125q0.609375 -0.203125 1.453125 -0.203125q0.203125 0 0.453125 0.03125q0.265625 0.015625 0.515625 0.046875q0.25 0.03125 0.5 0.078125q0.265625 0.046875 0.46875 0.09375l0 1.046875q-0.5 -0.140625 -1.0 -0.21875q-0.5 -0.078125 -0.96875 -0.078125q-1.0 0 -1.46875 0.34375q-0.46875 0.328125 -0.46875 0.890625q0 0.34375 0.1875 0.59375q0.203125 0.234375 0.515625 0.4375q0.3125 0.1875 0.703125 0.359375q0.40625 0.15625 0.8125 0.328125q0.421875 0.15625 0.828125 0.359375q0.40625 0.203125 0.71875 0.484375q0.3125 0.28125 0.5 0.65625q0.1875 0.359375 0.1875 0.875zm7.4059906 -1.3125q0 0.234375 -0.015625 0.40625q0 0.15625 -0.015625 0.296875l-4.578125 0q0 1.0 0.546875 1.546875q0.5625 0.53125 1.625 0.53125q0.28125 0 0.5625 -0.015625q0.296875 -0.03125 0.5625 -0.0625q0.265625 -0.046875 0.5 -0.09375q0.25 -0.046875 0.453125 -0.109375l0 0.9375q-0.453125 0.125 -1.046875 0.203125q-0.578125 0.078125 -1.203125 0.078125q-0.828125 0 -1.4375 -0.21875q-0.609375 -0.234375 -1.0 -0.65625q-0.390625 -0.4375 -0.578125 -1.0625q-0.171875 -0.625 -0.171875 -1.421875q0 -0.6875 0.1875 -1.296875q0.203125 -0.625 0.578125 -1.09375q0.390625 -0.46875 0.9375 -0.734375q0.5625 -0.28125 1.265625 -0.28125q0.671875 0 1.203125 0.21875q0.53125 0.21875 0.890625 0.609375q0.359375 0.390625 0.546875 0.953125q0.1875 0.5625 0.1875 1.265625zm-1.1875 -0.171875q0.03125 -0.421875 -0.078125 -0.78125q-0.109375 -0.375 -0.328125 -0.625q-0.21875 -0.265625 -0.546875 -0.40625q-0.3125 -0.15625 -0.75 -0.15625q-0.359375 0 -0.671875 0.15625q-0.3125 0.140625 -0.53125 0.40625q-0.21875 0.25 -0.359375 0.625q-0.125 0.359375 -0.15625 0.78125l3.421875 0zm2.9997406 -2.75l1.0 0l0.046875 1.046875q0.28125 -0.328125 0.546875 -0.546875q0.28125 -0.234375 0.53125 -0.375q0.25 -0.140625 0.515625 -0.1875q0.28125 -0.0625 0.5625 -0.0625q1.015625 0 1.53125 0.609375q0.515625 0.59375 0.515625 1.78125l0 4.265625l-1.140625 0l0 -4.171875q0 -0.765625 -0.28125 -1.125q-0.28125 -0.375 -0.859375 -0.375q-0.203125 0 -0.40625 0.0625q-0.1875 0.0625 -0.40625 0.21875q-0.21875 0.140625 -0.46875 0.40625q-0.25 0.265625 -0.5625 0.65625l0 4.328125l-1.125 0l0 -6.53125zm12.593491 6.4375q-0.390625 0.09375 -0.796875 0.140625q-0.40625 0.046875 -0.84375 0.046875q-1.21875 0 -1.828125 -0.546875q-0.609375 -0.5625 -0.609375 -1.71875l0 -3.40625l-1.828125 0l0 -0.953125l1.828125 0l0 -1.796875l1.140625 -0.296875l0 2.09375l2.9375 0l0 0.953125l-2.9375 0l0 3.3125q0 0.703125 0.375 1.0625q0.375 0.34375 1.09375 0.34375q0.3125 0 0.6875 -0.046875q0.375 -0.0625 0.78125 -0.15625l0 0.96875zm7.5778656 -3.515625q0 0.234375 -0.015625 0.40625q0 0.15625 -0.015625 0.296875l-4.578125 0q0 1.0 0.546875 1.546875q0.5625 0.53125 1.625 0.53125q0.28125 0 0.5625 -0.015625q0.296875 -0.03125 0.5625 -0.0625q0.265625 -0.046875 0.5 -0.09375q0.25 -0.046875 0.453125 -0.109375l0 0.9375q-0.453125 0.125 -1.046875 0.203125q-0.578125 0.078125 -1.203125 0.078125q-0.828125 0 -1.4375 -0.21875q-0.609375 -0.234375 -1.0 -0.65625q-0.390625 -0.4375 -0.578125 -1.0625q-0.171875 -0.625 -0.171875 -1.421875q0 -0.6875 0.1875 -1.296875q0.203125 -0.625 0.578125 -1.09375q0.390625 -0.46875 0.9375 -0.734375q0.5625 -0.28125 1.265625 -0.28125q0.671875 0 1.203125 0.21875q0.53125 0.21875 0.890625 0.609375q0.359375 0.390625 0.546875 0.953125q0.1875 0.5625 0.1875 1.265625zm-1.1875 -0.171875q0.03125 -0.421875 -0.078125 -0.78125q-0.109375 -0.375 -0.328125 -0.625q-0.21875 -0.265625 -0.546875 -0.40625q-0.3125 -0.15625 -0.75 -0.15625q-0.359375 0 -0.671875 0.15625q-0.3125 0.140625 -0.53125 0.40625q-0.21875 0.25 -0.359375 0.625q-0.125 0.359375 -0.15625 0.78125l3.421875 0zm2.9997406 -2.75l1.0 0l0.046875 1.046875q0.28125 -0.328125 0.546875 -0.546875q0.28125 -0.234375 0.53125 -0.375q0.25 -0.140625 0.515625 -0.1875q0.28125 -0.0625 0.5625 -0.0625q1.015625 0 1.53125 0.609375q0.515625 0.59375 0.515625 1.78125l0 4.265625l-1.140625 0l0 -4.171875q0 -0.765625 -0.28125 -1.125q-0.28125 -0.375 -0.859375 -0.375q-0.203125 0 -0.40625 0.0625q-0.1875 0.0625 -0.40625 0.21875q-0.21875 0.140625 -0.46875 0.40625q-0.25 0.265625 -0.5625 0.65625l0 4.328125l-1.125 0l0 -6.53125zm12.405991 6.296875q-0.453125 0.15625 -0.921875 0.234375q-0.453125 0.09375 -0.953125 0.09375q-1.546875 0 -2.390625 -0.84375q-0.828125 -0.84375 -0.828125 -2.453125q0 -0.765625 0.234375 -1.390625q0.25 -0.640625 0.671875 -1.09375q0.4375 -0.453125 1.046875 -0.6875q0.609375 -0.25 1.34375 -0.25q0.5 0 0.9375 0.078125q0.453125 0.0625 0.859375 0.234375l0 1.078125q-0.4375 -0.21875 -0.875 -0.3125q-0.4375 -0.109375 -0.90625 -0.109375q-0.4375 0 -0.828125 0.171875q-0.375 0.15625 -0.671875 0.46875q-0.296875 0.3125 -0.46875 0.765625q-0.15625 0.4375 -0.15625 1.015625q0 1.171875 0.5625 1.765625q0.578125 0.59375 1.609375 0.59375q0.453125 0 0.890625 -0.109375q0.4375 -0.109375 0.84375 -0.3125l0 1.0625zm7.7653656 -3.375q0 0.234375 -0.015625 0.40625q0 0.15625 -0.015625 0.296875l-4.578125 0q0 1.0 0.546875 1.546875q0.5625 0.53125 1.625 0.53125q0.28125 0 0.5625 -0.015625q0.296875 -0.03125 0.5625 -0.0625q0.265625 -0.046875 0.5 -0.09375q0.25 -0.046875 0.453125 -0.109375l0 0.9375q-0.453125 0.125 -1.046875 0.203125q-0.578125 0.078125 -1.203125 0.078125q-0.828125 0 -1.4375 -0.21875q-0.609375 -0.234375 -1.0 -0.65625q-0.390625 -0.4375 -0.578125 -1.0625q-0.171875 -0.625 -0.171875 -1.421875q0 -0.6875 0.1875 -1.296875q0.203125 -0.625 0.578125 -1.09375q0.390625 -0.46875 0.9375 -0.734375q0.5625 -0.28125 1.265625 -0.28125q0.671875 0 1.203125 0.21875q0.53125 0.21875 0.890625 0.609375q0.359375 0.390625 0.546875 0.953125q0.1875 0.5625 0.1875 1.265625zm-1.1875 -0.171875q0.03125 -0.421875 -0.078125 -0.78125q-0.109375 -0.375 -0.328125 -0.625q-0.21875 -0.265625 -0.546875 -0.40625q-0.3125 -0.15625 -0.75 -0.15625q-0.359375 0 -0.671875 0.15625q-0.3125 0.140625 -0.53125 0.40625q-0.21875 0.25 -0.359375 0.625q-0.125 0.359375 -0.15625 0.78125l3.421875 0zm15.499481 2.0q0 0.34375 -0.125 0.625q-0.109375 0.265625 -0.3125 0.484375q-0.203125 0.203125 -0.46875 0.359375q-0.265625 0.140625 -0.578125 0.25q-0.296875 0.09375 -0.625 0.125q-0.3125 0.046875 -0.609375 0.046875q-0.671875 0 -1.234375 -0.0625q-0.546875 -0.046875 -1.078125 -0.171875l0 -1.046875q0.5625 0.15625 1.125 0.25q0.578125 0.078125 1.140625 0.078125q0.8125 0 1.203125 -0.21875q0.390625 -0.21875 0.390625 -0.625q0 -0.1875 -0.0625 -0.3125q-0.0625 -0.140625 -0.234375 -0.265625q-0.15625 -0.140625 -0.5 -0.265625q-0.34375 -0.140625 -0.9375 -0.3125q-0.4375 -0.140625 -0.8125 -0.296875q-0.375 -0.171875 -0.65625 -0.390625q-0.265625 -0.234375 -0.421875 -0.53125q-0.15625 -0.3125 -0.15625 -0.734375q0 -0.265625 0.125 -0.59375q0.125 -0.328125 0.4375 -0.609375q0.3125 -0.28125 0.828125 -0.46875q0.515625 -0.1875 1.296875 -0.1875q0.390625 0 0.859375 0.046875q0.46875 0.046875 0.96875 0.140625l0 1.015625q-0.53125 -0.125 -1.015625 -0.1875q-0.46875 -0.0625 -0.828125 -0.0625q-0.421875 0 -0.71875 0.0625q-0.28125 0.0625 -0.46875 0.1875q-0.171875 0.109375 -0.25 0.265625q-0.078125 0.140625 -0.078125 0.3125q0 0.1875 0.0625 0.328125q0.078125 0.140625 0.265625 0.28125q0.1875 0.125 0.515625 0.265625q0.328125 0.125 0.859375 0.28125q0.59375 0.171875 0.984375 0.359375q0.390625 0.1875 0.640625 0.421875q0.25 0.21875 0.359375 0.515625q0.109375 0.28125 0.109375 0.640625zm7.6716156 -1.828125q0 0.234375 -0.015625 0.40625q0 0.15625 -0.015625 0.296875l-4.578125 0q0 1.0 0.546875 1.546875q0.5625 0.53125 1.625 0.53125q0.28125 0 0.5625 -0.015625q0.296875 -0.03125 0.5625 -0.0625q0.265625 -0.046875 0.5 -0.09375q0.25 -0.046875 0.453125 -0.109375l0 0.9375q-0.453125 0.125 -1.046875 0.203125q-0.578125 0.078125 -1.203125 0.078125q-0.828125 0 -1.4375 -0.21875q-0.609375 -0.234375 -1.0 -0.65625q-0.390625 -0.4375 -0.578125 -1.0625q-0.171875 -0.625 -0.171875 -1.421875q0 -0.6875 0.1875 -1.296875q0.203125 -0.625 0.578125 -1.09375q0.390625 -0.46875 0.9375 -0.734375q0.5625 -0.28125 1.265625 -0.28125q0.671875 0 1.203125 0.21875q0.53125 0.21875 0.890625 0.609375q0.359375 0.390625 0.546875 0.953125q0.1875 0.5625 0.1875 1.265625zm-1.1875 -0.171875q0.03125 -0.421875 -0.078125 -0.78125q-0.109375 -0.375 -0.328125 -0.625q-0.21875 -0.265625 -0.546875 -0.40625q-0.3125 -0.15625 -0.75 -0.15625q-0.359375 0 -0.671875 0.15625q-0.3125 0.140625 -0.53125 0.40625q-0.21875 0.25 -0.359375 0.625q-0.125 0.359375 -0.15625 0.78125l3.421875 0zm7.7028656 -1.828125q0.171875 0.234375 0.265625 0.53125q0.109375 0.296875 0.109375 0.65625q0 0.5 -0.1875 0.921875q-0.171875 0.421875 -0.515625 0.71875q-0.34375 0.296875 -0.8125 0.46875q-0.46875 0.171875 -1.03125 0.171875q-0.421875 0 -0.78125 -0.09375q-0.34375 -0.09375 -0.5625 -0.21875q-0.125 0.1875 -0.203125 0.34375q-0.078125 0.15625 -0.078125 0.359375q0 0.25 0.234375 0.421875q0.234375 0.15625 0.625 0.171875l1.71875 0.0625q0.484375 0.015625 0.890625 0.125q0.421875 0.109375 0.71875 0.328125q0.296875 0.203125 0.453125 0.515625q0.171875 0.296875 0.171875 0.703125q0 0.4375 -0.1875 0.828125q-0.1875 0.390625 -0.578125 0.671875q-0.390625 0.296875 -1.0 0.46875q-0.609375 0.1875 -1.4375 0.1875q-0.796875 0 -1.359375 -0.125q-0.546875 -0.125 -0.90625 -0.359375q-0.359375 -0.21875 -0.53125 -0.53125q-0.15625 -0.3125 -0.15625 -0.671875q0 -0.484375 0.21875 -0.84375q0.21875 -0.359375 0.6875 -0.6875q-0.171875 -0.078125 -0.296875 -0.1875q-0.125 -0.125 -0.203125 -0.265625q-0.078125 -0.140625 -0.125 -0.296875q-0.03125 -0.15625 -0.03125 -0.296875q0 -0.421875 0.203125 -0.765625q0.203125 -0.359375 0.46875 -0.671875q-0.125 -0.15625 -0.21875 -0.296875q-0.09375 -0.140625 -0.15625 -0.296875q-0.0625 -0.171875 -0.109375 -0.359375q-0.03125 -0.203125 -0.03125 -0.453125q0 -0.5 0.1875 -0.921875q0.1875 -0.421875 0.515625 -0.71875q0.34375 -0.296875 0.8125 -0.46875q0.46875 -0.171875 1.046875 -0.171875q0.234375 0 0.453125 0.03125q0.21875 0.03125 0.390625 0.09375l2.375 0l0 0.921875l-1.046875 0zm-3.9375 6.546875q0 0.46875 0.484375 0.671875q0.484375 0.21875 1.34375 0.21875q0.53125 0 0.890625 -0.09375q0.375 -0.09375 0.59375 -0.265625q0.234375 -0.15625 0.328125 -0.359375q0.109375 -0.203125 0.109375 -0.421875q0 -0.390625 -0.328125 -0.578125q-0.328125 -0.1875 -1.0 -0.21875l-1.703125 -0.0625q-0.21875 0.140625 -0.359375 0.265625q-0.140625 0.140625 -0.21875 0.28125q-0.078125 0.140625 -0.109375 0.28125q-0.03125 0.140625 -0.03125 0.28125zm0.34375 -5.34375q0 0.3125 0.109375 0.578125q0.109375 0.265625 0.296875 0.453125q0.1875 0.171875 0.4375 0.28125q0.265625 0.09375 0.578125 0.09375q0.328125 0 0.59375 -0.109375q0.265625 -0.125 0.4375 -0.3125q0.1875 -0.203125 0.28125 -0.453125q0.09375 -0.25 0.09375 -0.53125q0 -0.3125 -0.109375 -0.5625q-0.09375 -0.265625 -0.28125 -0.4375q-0.1875 -0.1875 -0.453125 -0.28125q-0.25 -0.109375 -0.5625 -0.109375q-0.34375 0 -0.609375 0.125q-0.265625 0.109375 -0.453125 0.296875q-0.171875 0.1875 -0.265625 0.453125q-0.09375 0.25 -0.09375 0.515625zm10.874741 4.40625l0 -4.6875q0 -0.3125 -0.03125 -0.5q-0.015625 -0.203125 -0.0625 -0.3125q-0.046875 -0.109375 -0.125 -0.15625q-0.078125 -0.046875 -0.1875 -0.046875q-0.125 0 -0.234375 0.078125q-0.109375 0.078125 -0.25 0.25q-0.125 0.171875 -0.28125 0.46875q-0.140625 0.28125 -0.359375 0.703125l0 4.203125l-1.03125 0l0 -4.5625q0 -0.359375 -0.03125 -0.578125q-0.015625 -0.234375 -0.0625 -0.34375q-0.046875 -0.125 -0.125 -0.171875q-0.078125 -0.046875 -0.1875 -0.046875q-0.125 0 -0.234375 0.0625q-0.09375 0.0625 -0.21875 0.234375q-0.125 0.171875 -0.28125 0.46875q-0.15625 0.28125 -0.375 0.734375l0 4.203125l-1.046875 0l0 -6.53125l0.875 0l0.046875 1.234375q0.171875 -0.359375 0.328125 -0.625q0.15625 -0.265625 0.328125 -0.421875q0.171875 -0.15625 0.359375 -0.234375q0.203125 -0.078125 0.4375 -0.078125q0.515625 0 0.78125 0.34375q0.28125 0.34375 0.28125 1.078125q0.15625 -0.34375 0.3125 -0.609375q0.15625 -0.265625 0.328125 -0.4375q0.171875 -0.1875 0.375 -0.28125q0.203125 -0.09375 0.484375 -0.09375q1.21875 0 1.21875 1.90625l0 4.75l-1.03125 0zm8.187241 -3.609375q0 0.234375 -0.015625 0.40625q0 0.15625 -0.015625 0.296875l-4.578125 0q0 1.0 0.546875 1.546875q0.5625 0.53125 1.625 0.53125q0.28125 0 0.5625 -0.015625q0.296875 -0.03125 0.5625 -0.0625q0.265625 -0.046875 0.5 -0.09375q0.25 -0.046875 0.453125 -0.109375l0 0.9375q-0.453125 0.125 -1.046875 0.203125q-0.578125 0.078125 -1.203125 0.078125q-0.828125 0 -1.4375 -0.21875q-0.609375 -0.234375 -1.0 -0.65625q-0.390625 -0.4375 -0.578125 -1.0625q-0.171875 -0.625 -0.171875 -1.421875q0 -0.6875 0.1875 -1.296875q0.203125 -0.625 0.578125 -1.09375q0.390625 -0.46875 0.9375 -0.734375q0.5625 -0.28125 1.265625 -0.28125q0.671875 0 1.203125 0.21875q0.53125 0.21875 0.890625 0.609375q0.359375 0.390625 0.546875 0.953125q0.1875 0.5625 0.1875 1.265625zm-1.1875 -0.171875q0.03125 -0.421875 -0.078125 -0.78125q-0.109375 -0.375 -0.328125 -0.625q-0.21875 -0.265625 -0.546875 -0.40625q-0.3125 -0.15625 -0.75 -0.15625q-0.359375 0 -0.671875 0.15625q-0.3125 0.140625 -0.53125 0.40625q-0.21875 0.25 -0.359375 0.625q-0.125 0.359375 -0.15625 0.78125l3.421875 0zm2.9997406 -2.75l1.0 0l0.046875 1.046875q0.28125 -0.328125 0.546875 -0.546875q0.28125 -0.234375 0.53125 -0.375q0.25 -0.140625 0.515625 -0.1875q0.28125 -0.0625 0.5625 -0.0625q1.015625 0 1.53125 0.609375q0.515625 0.59375 0.515625 1.78125l0 4.265625l-1.140625 0l0 -4.171875q0 -0.765625 -0.28125 -1.125q-0.28125 -0.375 -0.859375 -0.375q-0.203125 0 -0.40625 0.0625q-0.1875 0.0625 -0.40625 0.21875q-0.21875 0.140625 -0.46875 0.40625q-0.25 0.265625 -0.5625 0.65625l0 4.328125l-1.125 0l0 -6.53125zm12.593491 6.4375q-0.390625 0.09375 -0.796875 0.140625q-0.40625 0.046875 -0.84375 0.046875q-1.21875 0 -1.828125 -0.546875q-0.609375 -0.5625 -0.609375 -1.71875l0 -3.40625l-1.828125 0l0 -0.953125l1.828125 0l0 -1.796875l1.140625 -0.296875l0 2.09375l2.9375 0l0 0.953125l-2.9375 0l0 3.3125q0 0.703125 0.375 1.0625q0.375 0.34375 1.09375 0.34375q0.3125 0 0.6875 -0.046875q0.375 -0.0625 0.78125 -0.15625l0 0.96875zm7.5778656 -3.515625q0 0.234375 -0.015625 0.40625q0 0.15625 -0.015625 0.296875l-4.578125 0q0 1.0 0.546875 1.546875q0.5625 0.53125 1.625 0.53125q0.28125 0 0.5625 -0.015625q0.296875 -0.03125 0.5625 -0.0625q0.265625 -0.046875 0.5 -0.09375q0.25 -0.046875 0.453125 -0.109375l0 0.9375q-0.453125 0.125 -1.046875 0.203125q-0.578125 0.078125 -1.203125 0.078125q-0.828125 0 -1.4375 -0.21875q-0.609375 -0.234375 -1.0 -0.65625q-0.390625 -0.4375 -0.578125 -1.0625q-0.171875 -0.625 -0.171875 -1.421875q0 -0.6875 0.1875 -1.296875q0.203125 -0.625 0.578125 -1.09375q0.390625 -0.46875 0.9375 -0.734375q0.5625 -0.28125 1.265625 -0.28125q0.671875 0 1.203125 0.21875q0.53125 0.21875 0.890625 0.609375q0.359375 0.390625 0.546875 0.953125q0.1875 0.5625 0.1875 1.265625zm-1.1875 -0.171875q0.03125 -0.421875 -0.078125 -0.78125q-0.109375 -0.375 -0.328125 -0.625q-0.21875 -0.265625 -0.546875 -0.40625q-0.3125 -0.15625 -0.75 -0.15625q-0.359375 0 -0.671875 0.15625q-0.3125 0.140625 -0.53125 0.40625q-0.21875 0.25 -0.359375 0.625q-0.125 0.359375 -0.15625 0.78125l3.421875 0zm3.2653656 -2.75l1.03125 0l0.03125 1.203125q0.578125 -0.703125 1.140625 -1.015625q0.5625 -0.3125 1.140625 -0.3125q1.015625 0 1.53125 0.65625q0.53125 0.65625 0.484375 1.953125l-1.140625 0q0.015625 -0.859375 -0.25 -1.234375q-0.265625 -0.390625 -0.796875 -0.390625q-0.21875 0 -0.453125 0.078125q-0.234375 0.078125 -0.484375 0.265625q-0.234375 0.171875 -0.515625 0.453125q-0.265625 0.28125 -0.578125 0.671875l0 4.203125l-1.140625 0l0 -6.53125z" fill-rule="nonzero"/><path fill="#000000" d="m22.140625 62.50723l-3.03125 0l-1.796875 9.031246l-1.40625 0l1.796875 -9.031246l-3.015625 0l0.234375 -1.1875l7.453125 0l-0.234375 1.1875zm3.265625 9.171871q-1.40625 0 -2.203125 -0.71875q-0.78125 -0.734375 -0.78125 -2.171875q0 -0.65625 0.140625 -1.28125q0.140625 -0.640625 0.40625 -1.21875q0.265625 -0.59375 0.65625 -1.09375q0.390625 -0.5 0.890625 -0.859375q0.515625 -0.3749962 1.125 -0.5781212q0.609375 -0.203125 1.328125 -0.203125q0.703125 0 1.25 0.1875q0.5625 0.171875 0.9375 0.5468712q0.375 0.359375 0.578125 0.90625q0.203125 0.53125 0.203125 1.25q0 0.640625 -0.140625 1.28125q-0.125 0.640625 -0.390625 1.21875q-0.265625 0.578125 -0.65625 1.078125q-0.390625 0.5 -0.90625 0.875q-0.5 0.359375 -1.125 0.578125q-0.609375 0.203125 -1.3125 0.203125zm3.140625 -5.09375q0 -0.9375 -0.453125 -1.40625q-0.4375 -0.46875 -1.28125 -0.46875q-0.484375 0 -0.90625 0.171875q-0.40625 0.15625 -0.75 0.453125q-0.328125 0.296875 -0.578125 0.6875q-0.25 0.375 -0.421875 0.8125q-0.171875 0.4375 -0.265625 0.90625q-0.078125 0.453125 -0.078125 0.890625q0 0.953125 0.4375 1.421875q0.453125 0.46875 1.3125 0.46875q0.484375 0 0.890625 -0.15625q0.421875 -0.171875 0.75 -0.46875q0.328125 -0.296875 0.578125 -0.671875q0.265625 -0.390625 0.421875 -0.828125q0.171875 -0.4375 0.25 -0.90625q0.09375 -0.46875 0.09375 -0.90625zm9.4375 4.953125l-1.703125 0l-2.65625 -4.046875q1.015625 -0.078125 1.703125 -0.234375q0.703125 -0.171875 1.109375 -0.421875q0.421875 -0.25 0.59375 -0.546875q0.1875 -0.3125 0.1875 -0.65625q0 -0.1875 -0.0625 -0.34375q-0.046875 -0.171875 -0.171875 -0.296875q-0.125 -0.125 -0.3125 -0.1875q-0.171875 -0.078125 -0.421875 -0.078125q-0.5 0 -1.0 0.34375q-0.5 0.34375 -0.921875 0.890625q-0.421875 0.546875 -0.75 1.234375q-0.3125 0.6875 -0.453125 1.375l-0.59375 2.96875l-1.359375 0l2.203125 -11.046871l1.359375 0l-0.625 3.203125l-0.4375 1.6562462q0.21875 -0.40625 0.515625 -0.734375q0.3125 -0.328125 0.671875 -0.5625q0.375 -0.24999619 0.78125 -0.3749962q0.421875 -0.125 0.859375 -0.125q0.5 0 0.890625 0.140625q0.390625 0.140625 0.65625 0.4062462q0.265625 0.265625 0.390625 0.640625q0.140625 0.359375 0.140625 0.8125q0 0.578125 -0.265625 1.03125q-0.265625 0.4375 -0.703125 0.765625q-0.421875 0.328125 -0.953125 0.53125q-0.53125 0.203125 -1.0625 0.296875l2.390625 3.359375zm3.671875 -3.484375q-0.046875 0.203125 -0.0625 0.390625q-0.015625 0.171875 -0.015625 0.34375q0 0.84375 0.5 1.296875q0.515625 0.453125 1.578125 0.453125q0.6875 0 1.359375 -0.09375q0.671875 -0.109375 1.203125 -0.234375l0 1.109375q-0.578125 0.15625 -1.3125 0.25q-0.734375 0.109375 -1.484375 0.109375q-1.65625 0 -2.453125 -0.734375q-0.78125 -0.75 -0.78125 -2.140625q0 -1.078125 0.328125 -2.03125q0.34375 -0.953125 0.9375 -1.671875q0.59375 -0.71875 1.40625 -1.1249962q0.828125 -0.421875 1.78125 -0.421875q0.671875 0 1.1875 0.15625q0.515625 0.15625 0.875 0.4374962q0.359375 0.265625 0.546875 0.640625q0.1875 0.359375 0.1875 0.796875q0 0.5625 -0.234375 1.015625q-0.234375 0.453125 -0.765625 0.78125q-0.515625 0.3125 -1.34375 0.5q-0.8125 0.171875 -1.96875 0.171875l-1.46875 0zm1.453125 -1.046875q0.859375 0 1.421875 -0.109375q0.578125 -0.109375 0.90625 -0.28125q0.328125 -0.1875 0.453125 -0.421875q0.140625 -0.234375 0.140625 -0.484375q0 -0.21875 -0.09375 -0.40625q-0.078125 -0.203125 -0.265625 -0.34375q-0.171875 -0.15625 -0.453125 -0.234375q-0.28125 -0.09375 -0.65625 -0.09375q-0.5 0 -0.921875 0.171875q-0.421875 0.171875 -0.765625 0.484375q-0.328125 0.296875 -0.59375 0.734375q-0.25 0.4375 -0.421875 0.984375l1.25 0zm6.375 0.28125q0.03125 -0.140625 0.0625 -0.375q0.046875 -0.25 0.09375 -0.65625q0.046875 -0.421875 0.109375 -1.03125q0.078125 -0.625 0.171875 -1.5312462l1.28125 0l-0.203125 1.8124962q0.546875 -0.953125 1.3125 -1.453125q0.765625 -0.4999962 1.65625 -0.4999962q1.234375 0 1.75 0.7499962q0.53125 0.75 0.234375 2.203125l-1.015625 5.03125l-1.359375 0l1.015625 -5.015625q0.1875 -0.953125 -0.03125 -1.375q-0.21875 -0.421875 -0.84375 -0.421875q-0.5 0 -1.0 0.34375q-0.5 0.34375 -0.9375 0.890625q-0.421875 0.546875 -0.734375 1.234375q-0.3125 0.6875 -0.453125 1.375l-0.59375 2.96875l-1.359375 0l0.84375 -4.25zm11.75 -5.765621q0 -0.25 0.078125 -0.453125q0.09375 -0.203125 0.234375 -0.34375q0.15625 -0.15625 0.359375 -0.234375q0.203125 -0.09375 0.4375 -0.09375q0.234375 0 0.421875 0.09375q0.1875 0.078125 0.3125 0.21875q0.140625 0.125 0.21875 0.3125q0.078125 0.1875 0.078125 0.40625q0 0.234375 -0.09375 0.4375q-0.078125 0.203125 -0.234375 0.359375q-0.15625 0.140625 -0.359375 0.234375q-0.203125 0.078125 -0.4375 0.078125q-0.21875 0 -0.421875 -0.078125q-0.1875 -0.078125 -0.328125 -0.21875q-0.125 -0.140625 -0.203125 -0.328125q-0.0625 -0.1875 -0.0625 -0.390625zm3.21875 9.515621q-0.53125 0.296875 -1.140625 0.46875q-0.59375 0.171875 -1.265625 0.171875q-0.5625 0 -0.9375 -0.15625q-0.375 -0.15625 -0.578125 -0.5q-0.1875 -0.34375 -0.21875 -0.875q-0.015625 -0.53125 0.125 -1.28125l0.53125 -2.625q0.09375 -0.453125 0.09375 -0.75q0 -0.296875 -0.078125 -0.46875q-0.078125 -0.1875 -0.234375 -0.265625q-0.15625 -0.078125 -0.359375 -0.078125q-0.53125 0 -1.046875 0.21875q-0.515625 0.203125 -1.046875 0.5l0 -1.203125q0.546875 -0.2968712 1.140625 -0.4687462q0.59375 -0.171875 1.28125 -0.171875q0.546875 0 0.921875 0.15625q0.375 0.15625 0.578125 0.4999962q0.203125 0.328125 0.21875 0.859375q0.03125 0.53125 -0.125 1.296875l-0.53125 2.625q-0.078125 0.453125 -0.078125 0.75q0 0.296875 0.078125 0.484375q0.078125 0.171875 0.21875 0.25q0.15625 0.0625 0.359375 0.0625q0.53125 0 1.046875 -0.203125q0.515625 -0.203125 1.046875 -0.5l0 1.203125zm8.125 0.5l-6.3125 0l0.1875 -0.984375l5.546875 -5.71875l-4.28125 0l0.21875 -1.1406212l5.953125 0l-0.203125 1.0624962l-5.4375 5.625l4.5625 0l-0.234375 1.15625zm4.265625 -3.484375q-0.046875 0.203125 -0.0625 0.390625q-0.015625 0.171875 -0.015625 0.34375q0 0.84375 0.5 1.296875q0.515625 0.453125 1.578125 0.453125q0.6875 0 1.359375 -0.09375q0.671875 -0.109375 1.203125 -0.234375l0 1.109375q-0.578125 0.15625 -1.3125 0.25q-0.734375 0.109375 -1.484375 0.109375q-1.65625 0 -2.453125 -0.734375q-0.78125 -0.75 -0.78125 -2.140625q0 -1.078125 0.328125 -2.03125q0.34375 -0.953125 0.9375 -1.671875q0.59375 -0.71875 1.40625 -1.1249962q0.828125 -0.421875 1.78125 -0.421875q0.671875 0 1.1875 0.15625q0.515625 0.15625 0.875 0.4374962q0.359375 0.265625 0.546875 0.640625q0.1875 0.359375 0.1875 0.796875q0 0.5625 -0.234375 1.015625q-0.234375 0.453125 -0.765625 0.78125q-0.515625 0.3125 -1.34375 0.5q-0.8125 0.171875 -1.96875 0.171875l-1.46875 0zm1.453125 -1.046875q0.859375 0 1.421875 -0.109375q0.578125 -0.109375 0.90625 -0.28125q0.328125 -0.1875 0.453125 -0.421875q0.140625 -0.234375 0.140625 -0.484375q0 -0.21875 -0.09375 -0.40625q-0.078125 -0.203125 -0.265625 -0.34375q-0.171875 -0.15625 -0.453125 -0.234375q-0.28125 -0.09375 -0.65625 -0.09375q-0.5 0 -0.921875 0.171875q-0.421875 0.171875 -0.765625 0.484375q-0.328125 0.296875 -0.59375 0.734375q-0.25 0.4375 -0.421875 0.984375l1.25 0zm6.703125 0.28125q0.03125 -0.140625 0.0625 -0.375q0.03125 -0.25 0.078125 -0.65625q0.046875 -0.421875 0.109375 -1.03125q0.078125 -0.625 0.171875 -1.5312462l1.28125 0l-0.1875 1.8124962q0.265625 -0.40625 0.578125 -0.75q0.328125 -0.359375 0.703125 -0.625q0.390625 -0.2656212 0.84375 -0.4218712q0.453125 -0.15625 1.0 -0.15625q1.28125 0 1.765625 0.8124962q0.5 0.796875 0.171875 2.3125l-1.390625 0q0.125 -0.53125 0.125 -0.90625q0 -0.375 -0.109375 -0.609375q-0.109375 -0.234375 -0.3125 -0.328125q-0.203125 -0.109375 -0.5 -0.109375q-0.5625 0 -1.09375 0.34375q-0.53125 0.328125 -0.96875 0.890625q-0.4375 0.546875 -0.765625 1.234375q-0.3125 0.6875 -0.453125 1.375l-0.59375 2.96875l-1.375 0l0.859375 -4.25z" fill-rule="nonzero"/><path fill="#ffffff" d="m253.4765 18.497375l160.22049 0l0 62.362206l-160.22049 0z" fill-rule="evenodd"/><path stroke="#000000" stroke-width="1.0" stroke-linejoin="round" stroke-linecap="butt" d="m253.4765 18.497375l160.22049 0l0 62.362206l-160.22049 0z" fill-rule="evenodd"/><path fill="#000000" d="m269.24213 29.462852l-2.515625 0l0 7.515625l-1.171875 0l0 -7.515625l-2.515625 0l0 -0.984375l6.203125 0l0 0.984375zm7.2966003 4.203125q0 0.75 -0.21875 1.390625q-0.21875 0.640625 -0.625 1.09375q-0.390625 0.4375 -0.984375 0.6875q-0.578125 0.25 -1.3125 0.25q-0.703125 0 -1.265625 -0.203125q-0.546875 -0.21875 -0.9375 -0.640625q-0.375 -0.4375 -0.59375 -1.0625q-0.203125 -0.625 -0.203125 -1.4375q0 -0.75 0.21875 -1.375q0.21875 -0.640625 0.609375 -1.09375q0.40625 -0.453125 0.984375 -0.703125q0.59375 -0.25 1.328125 -0.25q0.703125 0 1.25 0.21875q0.5625 0.21875 0.9375 0.640625q0.390625 0.421875 0.59375 1.046875q0.21875 0.625 0.21875 1.4375zm-1.15625 0.046875q0 -0.609375 -0.140625 -1.0625q-0.140625 -0.453125 -0.390625 -0.75q-0.234375 -0.296875 -0.59375 -0.453125q-0.359375 -0.15625 -0.796875 -0.15625q-0.5 0 -0.859375 0.203125q-0.359375 0.1875 -0.59375 0.53125q-0.234375 0.328125 -0.34375 0.765625q-0.109375 0.4375 -0.109375 0.921875q0 0.609375 0.140625 1.0625q0.140625 0.453125 0.375 0.765625q0.25 0.296875 0.59375 0.453125q0.359375 0.140625 0.796875 0.140625q0.515625 0 0.875 -0.1875q0.359375 -0.203125 0.59375 -0.53125q0.234375 -0.34375 0.34375 -0.78125q0.109375 -0.4375 0.109375 -0.921875zm8.671631 3.265625l-1.5625 0l-3.046875 -3.5l0 3.5l-1.125 0l0 -9.203125l1.125 0l0 5.65625l2.9375 -2.984375l1.5 0l-3.0625 3.015625l3.234375 3.515625zm6.9684753 -3.609375q0 0.234375 -0.015625 0.40625q0 0.15625 -0.015625 0.296875l-4.578125 0q0 1.0 0.546875 1.546875q0.5625 0.53125 1.625 0.53125q0.28125 0 0.5625 -0.015625q0.296875 -0.03125 0.5625 -0.0625q0.265625 -0.046875 0.5 -0.09375q0.25 -0.046875 0.453125 -0.109375l0 0.9375q-0.453125 0.125 -1.046875 0.203125q-0.578125 0.078125 -1.203125 0.078125q-0.828125 0 -1.4375 -0.21875q-0.609375 -0.234375 -1.0 -0.65625q-0.390625 -0.4375 -0.578125 -1.0625q-0.171875 -0.625 -0.171875 -1.421875q0 -0.6875 0.1875 -1.296875q0.203125 -0.625 0.578125 -1.09375q0.390625 -0.46875 0.9375 -0.734375q0.5625 -0.28125 1.265625 -0.28125q0.671875 0 1.203125 0.21875q0.53125 0.21875 0.890625 0.609375q0.359375 0.390625 0.546875 0.953125q0.1875 0.5625 0.1875 1.265625zm-1.1875 -0.171875q0.03125 -0.421875 -0.078125 -0.78125q-0.109375 -0.375 -0.328125 -0.625q-0.21875 -0.265625 -0.546875 -0.40625q-0.3125 -0.15625 -0.75 -0.15625q-0.359375 0 -0.671875 0.15625q-0.3125 0.140625 -0.53125 0.40625q-0.21875 0.25 -0.359375 0.625q-0.125 0.359375 -0.15625 0.78125l3.421875 0zm2.9997559 -2.75l1.0 0l0.046875 1.046875q0.28125 -0.328125 0.546875 -0.546875q0.28125 -0.234375 0.53125 -0.375q0.25 -0.140625 0.515625 -0.1875q0.28125 -0.0625 0.5625 -0.0625q1.015625 0 1.53125 0.609375q0.515625 0.59375 0.515625 1.78125l0 4.265625l-1.140625 0l0 -4.171875q0 -0.765625 -0.28125 -1.125q-0.28125 -0.375 -0.859375 -0.375q-0.203125 0 -0.40625 0.0625q-0.1875 0.0625 -0.40625 0.21875q-0.21875 0.140625 -0.46875 0.40625q-0.25 0.265625 -0.5625 0.65625l0 4.328125l-1.125 0l0 -6.53125zm9.5466 0.9375l-1.9375 0l0 -0.9375l3.078125 0l0 5.59375l1.953125 0l0 0.9375l-5.234375 0l0 -0.9375l2.140625 0l0 -4.65625zm0.390625 -3.6875q0.203125 0 0.359375 0.078125q0.15625 0.0625 0.28125 0.1875q0.125 0.125 0.1875 0.28125q0.078125 0.15625 0.078125 0.359375q0 0.171875 -0.078125 0.34375q-0.0625 0.15625 -0.1875 0.28125q-0.125 0.125 -0.28125 0.203125q-0.15625 0.0625 -0.359375 0.0625q-0.1875 0 -0.34375 -0.0625q-0.15625 -0.078125 -0.28125 -0.203125q-0.125 -0.125 -0.203125 -0.28125q-0.0625 -0.171875 -0.0625 -0.34375q0 -0.203125 0.0625 -0.359375q0.078125 -0.15625 0.203125 -0.28125q0.125 -0.125 0.28125 -0.1875q0.15625 -0.078125 0.34375 -0.078125zm9.999756 9.28125l-5.265625 0l0 -0.8125l3.6875 -4.765625l-3.59375 0l0 -0.953125l4.96875 0l0 0.875l-3.625 4.703125l3.828125 0l0 0.953125zm7.5622253 -3.609375q0 0.234375 -0.015625 0.40625q0 0.15625 -0.015625 0.296875l-4.578125 0q0 1.0 0.546875 1.546875q0.5625 0.53125 1.625 0.53125q0.28125 0 0.5625 -0.015625q0.296875 -0.03125 0.5625 -0.0625q0.265625 -0.046875 0.5 -0.09375q0.25 -0.046875 0.453125 -0.109375l0 0.9375q-0.453125 0.125 -1.046875 0.203125q-0.578125 0.078125 -1.203125 0.078125q-0.828125 0 -1.4375 -0.21875q-0.609375 -0.234375 -1.0 -0.65625q-0.390625 -0.4375 -0.578125 -1.0625q-0.171875 -0.625 -0.171875 -1.421875q0 -0.6875 0.1875 -1.296875q0.203125 -0.625 0.578125 -1.09375q0.390625 -0.46875 0.9375 -0.734375q0.5625 -0.28125 1.265625 -0.28125q0.671875 0 1.203125 0.21875q0.53125 0.21875 0.890625 0.609375q0.359375 0.390625 0.546875 0.953125q0.1875 0.5625 0.1875 1.265625zm-1.1875 -0.171875q0.03125 -0.421875 -0.078125 -0.78125q-0.109375 -0.375 -0.328125 -0.625q-0.21875 -0.265625 -0.546875 -0.40625q-0.3125 -0.15625 -0.75 -0.15625q-0.359375 0 -0.671875 0.15625q-0.3125 0.140625 -0.53125 0.40625q-0.21875 0.25 -0.359375 0.625q-0.125 0.359375 -0.15625 0.78125l3.421875 0zm3.2653809 -2.75l1.03125 0l0.03125 1.203125q0.578125 -0.703125 1.140625 -1.015625q0.5625 -0.3125 1.140625 -0.3125q1.015625 0 1.53125 0.65625q0.53125 0.65625 0.484375 1.953125l-1.140625 0q0.015625 -0.859375 -0.25 -1.234375q-0.265625 -0.390625 -0.796875 -0.390625q-0.21875 0 -0.453125 0.078125q-0.234375 0.078125 -0.484375 0.265625q-0.234375 0.171875 -0.515625 0.453125q-0.265625 0.28125 -0.578125 0.671875l0 4.203125l-1.140625 0l0 -6.53125z" fill-rule="nonzero"/><path fill="#000000" d="m269.8515 71.538475l-1.5 0l-0.859375 -3.265625q-0.109375 -0.375 -0.25 -0.625q-0.125 -0.25 -0.3125 -0.390625q-0.1875 -0.140625 -0.421875 -0.203125q-0.234375 -0.0625 -0.546875 -0.0625l-0.65625 0l-0.90625 4.546875l-1.390625 0l2.046875 -10.218746l2.640625 0q0.765625 0 1.3125 0.15625q0.5625 0.140625 0.921875 0.421875q0.375 0.28125 0.546875 0.6875q0.1875 0.390625 0.1875 0.90625q0 0.5937462 -0.203125 1.1093712q-0.1875 0.515625 -0.546875 0.9375q-0.359375 0.40625 -0.875 0.703125q-0.5 0.28125 -1.125 0.4375q0.40625 0.15625 0.625 0.5625q0.21875 0.40625 0.390625 1.015625l0.921875 3.28125zm-0.65625 -7.828121q0 -1.21875 -1.640625 -1.21875l-1.34375 0l-0.671875 3.3749962l1.03125 0q0.640625 0 1.125 -0.171875q0.484375 -0.171875 0.8125 -0.453125q0.34375 -0.296875 0.515625 -0.6875q0.171875 -0.390625 0.171875 -0.8437462zm4.34375 4.343746q-0.046875 0.203125 -0.0625 0.390625q-0.015625 0.171875 -0.015625 0.34375q0 0.84375 0.5 1.296875q0.515625 0.453125 1.578125 0.453125q0.6875 0 1.359375 -0.09375q0.671875 -0.109375 1.203125 -0.234375l0 1.109375q-0.578125 0.15625 -1.3125 0.25q-0.734375 0.109375 -1.484375 0.109375q-1.65625 0 -2.453125 -0.734375q-0.78125 -0.75 -0.78125 -2.140625q0 -1.078125 0.328125 -2.03125q0.34375 -0.953125 0.9375 -1.671875q0.59375 -0.71875 1.40625 -1.1249962q0.828125 -0.421875 1.78125 -0.421875q0.671875 0 1.1875 0.15625q0.515625 0.15625 0.875 0.4374962q0.359375 0.265625 0.546875 0.640625q0.1875 0.359375 0.1875 0.796875q0 0.5625 -0.234375 1.015625q-0.234375 0.453125 -0.765625 0.78125q-0.515625 0.3125 -1.34375 0.5q-0.8125 0.171875 -1.96875 0.171875l-1.46875 0zm1.453125 -1.046875q0.859375 0 1.421875 -0.109375q0.578125 -0.109375 0.90625 -0.28125q0.328125 -0.1875 0.453125 -0.421875q0.140625 -0.234375 0.140625 -0.484375q0 -0.21875 -0.09375 -0.40625q-0.078125 -0.203125 -0.265625 -0.34375q-0.171875 -0.15625 -0.453125 -0.234375q-0.28125 -0.09375 -0.65625 -0.09375q-0.5 0 -0.921875 0.171875q-0.421875 0.171875 -0.765625 0.484375q-0.328125 0.296875 -0.59375 0.734375q-0.25 0.4375 -0.421875 0.984375l1.25 0zm8.640625 4.625q-0.578125 0 -0.96875 -0.046875q-0.375 -0.046875 -0.71875 -0.140625l-0.65625 3.296875l-1.359375 0l1.484375 -7.453125q0.03125 -0.140625 0.0625 -0.375q0.046875 -0.25 0.09375 -0.65625q0.046875 -0.421875 0.109375 -1.03125q0.078125 -0.625 0.171875 -1.5312462l1.28125 0l-0.1875 1.8124962q0.53125 -0.953125 1.296875 -1.453125q0.765625 -0.4999962 1.671875 -0.4999962q0.5625 0 0.96875 0.1875q0.421875 0.1875 0.6875 0.5312462q0.28125 0.34375 0.40625 0.84375q0.140625 0.484375 0.140625 1.078125q0 1.125 -0.296875 2.109375q-0.28125 0.984375 -0.859375 1.734375q-0.5625 0.734375 -1.40625 1.171875q-0.84375 0.421875 -1.921875 0.421875zm3.109375 -5.3125q0 -0.75 -0.25 -1.15625q-0.25 -0.421875 -0.828125 -0.421875q-0.34375 0 -0.6875 0.15625q-0.328125 0.15625 -0.65625 0.4375q-0.3125 0.265625 -0.609375 0.640625q-0.28125 0.359375 -0.515625 0.796875q-0.234375 0.421875 -0.40625 0.890625q-0.171875 0.453125 -0.265625 0.90625l-0.328125 1.625q0.375 0.15625 0.765625 0.25q0.390625 0.078125 0.71875 0.078125q0.640625 0 1.109375 -0.21875q0.484375 -0.21875 0.8125 -0.5625q0.34375 -0.359375 0.5625 -0.8125q0.21875 -0.453125 0.34375 -0.921875q0.140625 -0.46875 0.1875 -0.90625q0.046875 -0.4375 0.046875 -0.78125zm5.6875 5.3125q-0.578125 0 -0.96875 -0.046875q-0.375 -0.046875 -0.71875 -0.140625l-0.65625 3.296875l-1.359375 0l1.484375 -7.453125q0.03125 -0.140625 0.0625 -0.375q0.046875 -0.25 0.09375 -0.65625q0.046875 -0.421875 0.109375 -1.03125q0.078125 -0.625 0.171875 -1.5312462l1.28125 0l-0.1875 1.8124962q0.53125 -0.953125 1.296875 -1.453125q0.765625 -0.4999962 1.671875 -0.4999962q0.5625 0 0.96875 0.1875q0.421875 0.1875 0.6875 0.5312462q0.28125 0.34375 0.40625 0.84375q0.140625 0.484375 0.140625 1.078125q0 1.125 -0.296875 2.109375q-0.28125 0.984375 -0.859375 1.734375q-0.5625 0.734375 -1.40625 1.171875q-0.84375 0.421875 -1.921875 0.421875zm3.109375 -5.3125q0 -0.75 -0.25 -1.15625q-0.25 -0.421875 -0.828125 -0.421875q-0.34375 0 -0.6875 0.15625q-0.328125 0.15625 -0.65625 0.4375q-0.3125 0.265625 -0.609375 0.640625q-0.28125 0.359375 -0.515625 0.796875q-0.234375 0.421875 -0.40625 0.890625q-0.171875 0.453125 -0.265625 0.90625l-0.328125 1.625q0.375 0.15625 0.765625 0.25q0.390625 0.078125 0.71875 0.078125q0.640625 0 1.109375 -0.21875q0.484375 -0.21875 0.8125 -0.5625q0.34375 -0.359375 0.5625 -0.8125q0.21875 -0.453125 0.34375 -0.921875q0.140625 -0.46875 0.1875 -0.90625q0.046875 -0.4375 0.046875 -0.78125z" fill-rule="nonzero"/><path fill="#ffffff" d="m502.953 19.138916l160.22046 0l0 62.362206l-160.22046 0z" fill-rule="evenodd"/><path stroke="#000000" stroke-width="1.0" stroke-linejoin="round" stroke-linecap="butt" d="m502.953 19.138916l160.22046 0l0 62.362206l-160.22046 0z" fill-rule="evenodd"/><path fill="#000000" d="m518.5624 31.713768q0 0.53125 -0.203125 1.046875q-0.1875 0.5 -0.59375 0.90625q-0.40625 0.40625 -1.046875 0.65625q-0.640625 0.25 -1.53125 0.25l-1.046875 0l0 3.046875l-1.15625 0l0 -8.5l2.390625 0q0.625 0 1.203125 0.140625q0.59375 0.140625 1.03125 0.453125q0.4375 0.3125 0.6875 0.8125q0.265625 0.484375 0.265625 1.1875zm-1.203125 0.0625q0 -0.828125 -0.546875 -1.265625q-0.53125 -0.4375 -1.484375 -0.4375l-1.1875 0l0 3.5l1.078125 0q1.03125 0 1.578125 -0.4375q0.5625 -0.453125 0.5625 -1.359375zm8.890381 1.53125q0 1.15625 -0.265625 1.984375q-0.265625 0.828125 -0.734375 1.375q-0.453125 0.546875 -1.078125 0.8125q-0.609375 0.25 -1.296875 0.25q-0.8125 0 -1.421875 -0.28125q-0.609375 -0.296875 -1.015625 -0.859375q-0.390625 -0.5625 -0.59375 -1.359375q-0.1875 -0.8125 -0.1875 -1.8125q0 -1.140625 0.265625 -1.96875q0.265625 -0.84375 0.71875 -1.375q0.46875 -0.546875 1.078125 -0.8125q0.609375 -0.265625 1.296875 -0.265625q0.8125 0 1.421875 0.296875q0.609375 0.296875 1.015625 0.859375q0.40625 0.5625 0.59375 1.359375q0.203125 0.796875 0.203125 1.796875zm-1.203125 0.09375q0 -0.75 -0.125 -1.375q-0.109375 -0.625 -0.359375 -1.0625q-0.25 -0.453125 -0.65625 -0.703125q-0.390625 -0.25 -0.96875 -0.25q-0.53125 0 -0.9375 0.265625q-0.390625 0.265625 -0.640625 0.71875q-0.25 0.453125 -0.375 1.0625q-0.125 0.609375 -0.125 1.28125q0 0.765625 0.109375 1.390625q0.125 0.609375 0.375 1.0625q0.25 0.4375 0.640625 0.6875q0.40625 0.25 0.953125 0.25q0.546875 0 0.9375 -0.265625q0.40625 -0.265625 0.65625 -0.71875q0.265625 -0.453125 0.390625 -1.046875q0.125 -0.609375 0.125 -1.296875zm8.04657 1.921875q0 0.59375 -0.25 1.0625q-0.234375 0.453125 -0.6875 0.75q-0.4375 0.296875 -1.0625 0.453125q-0.625 0.140625 -1.359375 0.140625q-0.34375 0 -0.6875 -0.03125q-0.328125 -0.015625 -0.640625 -0.0625q-0.3125 -0.03125 -0.59375 -0.078125q-0.265625 -0.046875 -0.484375 -0.109375l0 -1.125q0.484375 0.1875 1.09375 0.296875q0.609375 0.09375 1.390625 0.09375q0.5625 0 0.953125 -0.078125q0.390625 -0.09375 0.640625 -0.265625q0.25 -0.171875 0.359375 -0.421875q0.125 -0.25 0.125 -0.5625q0 -0.34375 -0.203125 -0.59375q-0.1875 -0.25 -0.5 -0.4375q-0.3125 -0.1875 -0.71875 -0.34375q-0.390625 -0.171875 -0.8125 -0.328125q-0.40625 -0.171875 -0.8125 -0.375q-0.40625 -0.203125 -0.71875 -0.46875q-0.3125 -0.265625 -0.5 -0.625q-0.1875 -0.375 -0.1875 -0.875q0 -0.4375 0.171875 -0.859375q0.1875 -0.421875 0.5625 -0.75q0.390625 -0.328125 0.984375 -0.53125q0.609375 -0.203125 1.453125 -0.203125q0.203125 0 0.453125 0.03125q0.265625 0.015625 0.515625 0.046875q0.25 0.03125 0.5 0.078125q0.265625 0.046875 0.46875 0.09375l0 1.046875q-0.5 -0.140625 -1.0 -0.21875q-0.5 -0.078125 -0.96875 -0.078125q-1.0 0 -1.46875 0.34375q-0.46875 0.328125 -0.46875 0.890625q0 0.34375 0.1875 0.59375q0.203125 0.234375 0.515625 0.4375q0.3125 0.1875 0.703125 0.359375q0.40625 0.15625 0.8125 0.328125q0.421875 0.15625 0.828125 0.359375q0.40625 0.203125 0.71875 0.484375q0.3125 0.28125 0.5 0.65625q0.1875 0.359375 0.1875 0.875zm6.452881 -0.71875l-3.890625 0l0 -1.0625l3.890625 0l0 1.0625zm8.031006 2.921875q-0.390625 0.09375 -0.796875 0.140625q-0.40625 0.046875 -0.84375 0.046875q-1.21875 0 -1.828125 -0.546875q-0.609375 -0.5625 -0.609375 -1.71875l0 -3.40625l-1.828125 0l0 -0.953125l1.828125 0l0 -1.796875l1.140625 -0.296875l0 2.09375l2.9375 0l0 0.953125l-2.9375 0l0 3.3125q0 0.703125 0.375 1.0625q0.375 0.34375 1.09375 0.34375q0.3125 0 0.6875 -0.046875q0.375 -0.0625 0.78125 -0.15625l0 0.96875zm6.249756 0.09375l-0.015625 -0.875q-0.546875 0.53125 -1.09375 0.765625q-0.546875 0.21875 -1.15625 0.21875q-0.546875 0 -0.953125 -0.140625q-0.390625 -0.140625 -0.65625 -0.390625q-0.25 -0.25 -0.375 -0.578125q-0.125 -0.34375 -0.125 -0.75q0 -0.984375 0.734375 -1.53125q0.734375 -0.5625 2.171875 -0.5625l1.34375 0l0 -0.5625q0 -0.578125 -0.375 -0.921875q-0.359375 -0.359375 -1.125 -0.359375q-0.546875 0 -1.09375 0.125q-0.53125 0.125 -1.109375 0.34375l0 -1.015625q0.21875 -0.078125 0.484375 -0.15625q0.265625 -0.078125 0.546875 -0.125q0.296875 -0.0625 0.609375 -0.09375q0.328125 -0.046875 0.65625 -0.046875q0.59375 0 1.0625 0.140625q0.484375 0.125 0.8125 0.390625q0.328125 0.265625 0.5 0.671875q0.171875 0.40625 0.171875 0.953125l0 4.5l-1.015625 0zm-0.125 -2.96875l-1.4375 0q-0.421875 0 -0.734375 0.078125q-0.296875 0.078125 -0.5 0.234375q-0.1875 0.15625 -0.28125 0.375q-0.09375 0.21875 -0.09375 0.5q0 0.1875 0.0625 0.359375q0.0625 0.171875 0.1875 0.3125q0.125 0.125 0.328125 0.203125q0.21875 0.078125 0.515625 0.078125q0.390625 0 0.890625 -0.234375q0.515625 -0.234375 1.0625 -0.75l0 -1.15625zm7.968445 -2.640625q0.171875 0.234375 0.265625 0.53125q0.109375 0.296875 0.109375 0.65625q0 0.5 -0.1875 0.921875q-0.171875 0.421875 -0.515625 0.71875q-0.34375 0.296875 -0.8125 0.46875q-0.46875 0.171875 -1.03125 0.171875q-0.421875 0 -0.78125 -0.09375q-0.34375 -0.09375 -0.5625 -0.21875q-0.125 0.1875 -0.203125 0.34375q-0.078125 0.15625 -0.078125 0.359375q0 0.25 0.234375 0.421875q0.234375 0.15625 0.625 0.171875l1.71875 0.0625q0.484375 0.015625 0.890625 0.125q0.421875 0.109375 0.71875 0.328125q0.296875 0.203125 0.453125 0.515625q0.171875 0.296875 0.171875 0.703125q0 0.4375 -0.1875 0.828125q-0.1875 0.390625 -0.578125 0.671875q-0.390625 0.296875 -1.0 0.46875q-0.609375 0.1875 -1.4375 0.1875q-0.796875 0 -1.359375 -0.125q-0.546875 -0.125 -0.90625 -0.359375q-0.359375 -0.21875 -0.53125 -0.53125q-0.15625 -0.3125 -0.15625 -0.671875q0 -0.484375 0.21875 -0.84375q0.21875 -0.359375 0.6875 -0.6875q-0.171875 -0.078125 -0.296875 -0.1875q-0.125 -0.125 -0.203125 -0.265625q-0.078125 -0.140625 -0.125 -0.296875q-0.03125 -0.15625 -0.03125 -0.296875q0 -0.421875 0.203125 -0.765625q0.203125 -0.359375 0.46875 -0.671875q-0.125 -0.15625 -0.21875 -0.296875q-0.09375 -0.140625 -0.15625 -0.296875q-0.0625 -0.171875 -0.109375 -0.359375q-0.03125 -0.203125 -0.03125 -0.453125q0 -0.5 0.1875 -0.921875q0.1875 -0.421875 0.515625 -0.71875q0.34375 -0.296875 0.8125 -0.46875q0.46875 -0.171875 1.046875 -0.171875q0.234375 0 0.453125 0.03125q0.21875 0.03125 0.390625 0.09375l2.375 0l0 0.921875l-1.046875 0zm-3.9375 6.546875q0 0.46875 0.484375 0.671875q0.484375 0.21875 1.34375 0.21875q0.53125 0 0.890625 -0.09375q0.375 -0.09375 0.59375 -0.265625q0.234375 -0.15625 0.328125 -0.359375q0.109375 -0.203125 0.109375 -0.421875q0 -0.390625 -0.328125 -0.578125q-0.328125 -0.1875 -1.0 -0.21875l-1.703125 -0.0625q-0.21875 0.140625 -0.359375 0.265625q-0.140625 0.140625 -0.21875 0.28125q-0.078125 0.140625 -0.109375 0.28125q-0.03125 0.140625 -0.03125 0.28125zm0.34375 -5.34375q0 0.3125 0.109375 0.578125q0.109375 0.265625 0.296875 0.453125q0.1875 0.171875 0.4375 0.28125q0.265625 0.09375 0.578125 0.09375q0.328125 0 0.59375 -0.109375q0.265625 -0.125 0.4375 -0.3125q0.1875 -0.203125 0.28125 -0.453125q0.09375 -0.25 0.09375 -0.53125q0 -0.3125 -0.109375 -0.5625q-0.09375 -0.265625 -0.28125 -0.4375q-0.1875 -0.1875 -0.453125 -0.28125q-0.25 -0.109375 -0.5625 -0.109375q-0.34375 0 -0.609375 0.125q-0.265625 0.109375 -0.453125 0.296875q-0.171875 0.1875 -0.265625 0.453125q-0.09375 0.25 -0.09375 0.515625zm10.921631 -1.203125q0.171875 0.234375 0.265625 0.53125q0.109375 0.296875 0.109375 0.65625q0 0.5 -0.1875 0.921875q-0.171875 0.421875 -0.515625 0.71875q-0.34375 0.296875 -0.8125 0.46875q-0.46875 0.171875 -1.03125 0.171875q-0.421875 0 -0.78125 -0.09375q-0.34375 -0.09375 -0.5625 -0.21875q-0.125 0.1875 -0.203125 0.34375q-0.078125 0.15625 -0.078125 0.359375q0 0.25 0.234375 0.421875q0.234375 0.15625 0.625 0.171875l1.71875 0.0625q0.484375 0.015625 0.890625 0.125q0.421875 0.109375 0.71875 0.328125q0.296875 0.203125 0.453125 0.515625q0.171875 0.296875 0.171875 0.703125q0 0.4375 -0.1875 0.828125q-0.1875 0.390625 -0.578125 0.671875q-0.390625 0.296875 -1.0 0.46875q-0.609375 0.1875 -1.4375 0.1875q-0.796875 0 -1.359375 -0.125q-0.546875 -0.125 -0.90625 -0.359375q-0.359375 -0.21875 -0.53125 -0.53125q-0.15625 -0.3125 -0.15625 -0.671875q0 -0.484375 0.21875 -0.84375q0.21875 -0.359375 0.6875 -0.6875q-0.171875 -0.078125 -0.296875 -0.1875q-0.125 -0.125 -0.203125 -0.265625q-0.078125 -0.140625 -0.125 -0.296875q-0.03125 -0.15625 -0.03125 -0.296875q0 -0.421875 0.203125 -0.765625q0.203125 -0.359375 0.46875 -0.671875q-0.125 -0.15625 -0.21875 -0.296875q-0.09375 -0.140625 -0.15625 -0.296875q-0.0625 -0.171875 -0.109375 -0.359375q-0.03125 -0.203125 -0.03125 -0.453125q0 -0.5 0.1875 -0.921875q0.1875 -0.421875 0.515625 -0.71875q0.34375 -0.296875 0.8125 -0.46875q0.46875 -0.171875 1.046875 -0.171875q0.234375 0 0.453125 0.03125q0.21875 0.03125 0.390625 0.09375l2.375 0l0 0.921875l-1.046875 0zm-3.9375 6.546875q0 0.46875 0.484375 0.671875q0.484375 0.21875 1.34375 0.21875q0.53125 0 0.890625 -0.09375q0.375 -0.09375 0.59375 -0.265625q0.234375 -0.15625 0.328125 -0.359375q0.109375 -0.203125 0.109375 -0.421875q0 -0.390625 -0.328125 -0.578125q-0.328125 -0.1875 -1.0 -0.21875l-1.703125 -0.0625q-0.21875 0.140625 -0.359375 0.265625q-0.140625 0.140625 -0.21875 0.28125q-0.078125 0.140625 -0.109375 0.28125q-0.03125 0.140625 -0.03125 0.28125zm0.34375 -5.34375q0 0.3125 0.109375 0.578125q0.109375 0.265625 0.296875 0.453125q0.1875 0.171875 0.4375 0.28125q0.265625 0.09375 0.578125 0.09375q0.328125 0 0.59375 -0.109375q0.265625 -0.125 0.4375 -0.3125q0.1875 -0.203125 0.28125 -0.453125q0.09375 -0.25 0.09375 -0.53125q0 -0.3125 -0.109375 -0.5625q-0.09375 -0.265625 -0.28125 -0.4375q-0.1875 -0.1875 -0.453125 -0.28125q-0.25 -0.109375 -0.5625 -0.109375q-0.34375 0 -0.609375 0.125q-0.265625 0.109375 -0.453125 0.296875q-0.171875 0.1875 -0.265625 0.453125q-0.09375 0.25 -0.09375 0.515625zm11.734131 0.796875q0 0.234375 -0.015625 0.40625q0 0.15625 -0.015625 0.296875l-4.578125 0q0 1.0 0.546875 1.546875q0.5625 0.53125 1.625 0.53125q0.28125 0 0.5625 -0.015625q0.296875 -0.03125 0.5625 -0.0625q0.265625 -0.046875 0.5 -0.09375q0.25 -0.046875 0.453125 -0.109375l0 0.9375q-0.453125 0.125 -1.046875 0.203125q-0.578125 0.078125 -1.203125 0.078125q-0.828125 0 -1.4375 -0.21875q-0.609375 -0.234375 -1.0 -0.65625q-0.390625 -0.4375 -0.578125 -1.0625q-0.171875 -0.625 -0.171875 -1.421875q0 -0.6875 0.1875 -1.296875q0.203125 -0.625 0.578125 -1.09375q0.390625 -0.46875 0.9375 -0.734375q0.5625 -0.28125 1.265625 -0.28125q0.671875 0 1.203125 0.21875q0.53125 0.21875 0.890625 0.609375q0.359375 0.390625 0.546875 0.953125q0.1875 0.5625 0.1875 1.265625zm-1.1875 -0.171875q0.03125 -0.421875 -0.078125 -0.78125q-0.109375 -0.375 -0.328125 -0.625q-0.21875 -0.265625 -0.546875 -0.40625q-0.3125 -0.15625 -0.75 -0.15625q-0.359375 0 -0.671875 0.15625q-0.3125 0.140625 -0.53125 0.40625q-0.21875 0.25 -0.359375 0.625q-0.125 0.359375 -0.15625 0.78125l3.421875 0zm3.2653809 -2.75l1.03125 0l0.03125 1.203125q0.578125 -0.703125 1.140625 -1.015625q0.5625 -0.3125 1.140625 -0.3125q1.015625 0 1.53125 0.65625q0.53125 0.65625 0.484375 1.953125l-1.140625 0q0.015625 -0.859375 -0.25 -1.234375q-0.265625 -0.390625 -0.796875 -0.390625q-0.21875 0 -0.453125 0.078125q-0.234375 0.078125 -0.484375 0.265625q-0.234375 0.171875 -0.515625 0.453125q-0.265625 0.28125 -0.578125 0.671875l0 4.203125l-1.140625 0l0 -6.53125z" fill-rule="nonzero"/><path fill="#000000" d="m519.0936 72.180016l-1.390625 0l0.9375 -4.6875l-4.28125 0l-0.953125 4.6875l-1.390625 0l2.046875 -10.218746l1.40625 0l-0.875 4.328121l4.296875 0l0.859375 -4.328121l1.390625 0l-2.046875 10.218746zm9.125 -3.609375q-0.03125 0.15625 -0.0625 0.40625q-0.03125 0.234375 -0.078125 0.640625q-0.046875 0.40625 -0.125 1.03125q-0.0625 0.625 -0.15625 1.53125l-1.28125 0l0.1875 -1.8125q-0.53125 0.9375 -1.296875 1.453125q-0.765625 0.5 -1.65625 0.5q-1.25 0 -1.765625 -0.75q-0.515625 -0.75 -0.21875 -2.203125l1.0 -5.03125l1.359375 0l-1.0 5.015625q-0.203125 0.9375 0.015625 1.375q0.234375 0.421875 0.859375 0.421875q0.34375 0 0.671875 -0.15625q0.328125 -0.15625 0.640625 -0.421875q0.328125 -0.28125 0.609375 -0.65625q0.28125 -0.375 0.515625 -0.796875q0.25 -0.4375 0.421875 -0.890625q0.171875 -0.46875 0.265625 -0.9375l0.59375 -2.953125l1.359375 0l-0.859375 4.234375zm2.625 -0.640625q0.03125 -0.140625 0.0625 -0.375q0.046875 -0.25 0.09375 -0.65625q0.046875 -0.421875 0.109375 -1.03125q0.078125 -0.625 0.171875 -1.53125l1.28125 0l-0.203125 1.8125q0.546875 -0.953125 1.3125 -1.453125q0.765625 -0.5 1.65625 -0.5q1.234375 0 1.75 0.75q0.53125 0.75 0.234375 2.203125l-1.015625 5.03125l-1.359375 0l1.015625 -5.015625q0.1875 -0.953125 -0.03125 -1.375q-0.21875 -0.421875 -0.84375 -0.421875q-0.5 0 -1.0 0.34375q-0.5 0.34375 -0.9375 0.890625q-0.421875 0.546875 -0.734375 1.234375q-0.3125 0.6875 -0.453125 1.375l-0.59375 2.96875l-1.359375 0l0.84375 -4.25zm11.0625 4.34375q-0.578125 0 -0.96875 -0.046875q-0.375 -0.046875 -0.71875 -0.140625l-0.65625 3.296875l-1.359375 0l1.484375 -7.453125q0.03125 -0.140625 0.0625 -0.375q0.046875 -0.25 0.09375 -0.65625q0.046875 -0.421875 0.109375 -1.03125q0.078125 -0.625 0.171875 -1.53125l1.28125 0l-0.1875 1.8125q0.53125 -0.953125 1.296875 -1.453125q0.765625 -0.5 1.671875 -0.5q0.5625 0 0.96875 0.1875q0.421875 0.1875 0.6875 0.53125q0.28125 0.34375 0.40625 0.84375q0.140625 0.484375 0.140625 1.078125q0 1.125 -0.296875 2.109375q-0.28125 0.984375 -0.859375 1.734375q-0.5625 0.734375 -1.40625 1.171875q-0.84375 0.421875 -1.921875 0.421875zm3.109375 -5.3125q0 -0.75 -0.25 -1.15625q-0.25 -0.421875 -0.828125 -0.421875q-0.34375 0 -0.6875 0.15625q-0.328125 0.15625 -0.65625 0.4375q-0.3125 0.265625 -0.609375 0.640625q-0.28125 0.359375 -0.515625 0.796875q-0.234375 0.421875 -0.40625 0.890625q-0.171875 0.453125 -0.265625 0.90625l-0.328125 1.625q0.375 0.15625 0.765625 0.25q0.390625 0.078125 0.71875 0.078125q0.640625 0 1.109375 -0.21875q0.484375 -0.21875 0.8125 -0.5625q0.34375 -0.359375 0.5625 -0.8125q0.21875 -0.453125 0.34375 -0.921875q0.140625 -0.46875 0.1875 -0.90625q0.046875 -0.4375 0.046875 -0.78125zm5.734375 5.359375q-1.40625 0 -2.203125 -0.71875q-0.78125 -0.734375 -0.78125 -2.171875q0 -0.65625 0.140625 -1.28125q0.140625 -0.640625 0.40625 -1.21875q0.265625 -0.59375 0.65625 -1.09375q0.390625 -0.5 0.890625 -0.859375q0.515625 -0.375 1.125 -0.578125q0.609375 -0.203125 1.328125 -0.203125q0.703125 0 1.25 0.1875q0.5625 0.171875 0.9375 0.546875q0.375 0.359375 0.578125 0.90625q0.203125 0.53125 0.203125 1.25q0 0.640625 -0.140625 1.28125q-0.125 0.640625 -0.390625 1.21875q-0.265625 0.578125 -0.65625 1.078125q-0.390625 0.5 -0.90625 0.875q-0.5 0.359375 -1.125 0.578125q-0.609375 0.203125 -1.3125 0.203125zm3.140625 -5.09375q0 -0.9375 -0.453125 -1.40625q-0.4375 -0.46875 -1.28125 -0.46875q-0.484375 0 -0.90625 0.171875q-0.40625 0.15625 -0.75 0.453125q-0.328125 0.296875 -0.578125 0.6875q-0.25 0.375 -0.421875 0.8125q-0.171875 0.4375 -0.265625 0.90625q-0.078125 0.453125 -0.078125 0.890625q0 0.953125 0.4375 1.421875q0.453125 0.46875 1.3125 0.46875q0.484375 0 0.890625 -0.15625q0.421875 -0.171875 0.75 -0.46875q0.328125 -0.296875 0.578125 -0.671875q0.265625 -0.390625 0.421875 -0.828125q0.171875 -0.4375 0.25 -0.90625q0.09375 -0.46875 0.09375 -0.90625zm9.640625 -1.578125q-0.71875 -0.171875 -1.28125 -0.25q-0.5625 -0.078125 -1.0 -0.078125q-0.53125 0 -0.921875 0.09375q-0.390625 0.078125 -0.640625 0.234375q-0.25 0.15625 -0.375 0.390625q-0.109375 0.21875 -0.109375 0.484375q0 0.203125 0.09375 0.359375q0.09375 0.140625 0.28125 0.28125q0.203125 0.140625 0.515625 0.28125q0.328125 0.125 0.8125 0.265625q0.5625 0.1875 0.96875 0.390625q0.40625 0.203125 0.65625 0.453125q0.265625 0.25 0.375 0.5625q0.125 0.296875 0.125 0.6875q0 0.609375 -0.265625 1.078125q-0.265625 0.46875 -0.75 0.796875q-0.46875 0.3125 -1.140625 0.484375q-0.671875 0.15625 -1.46875 0.15625q-0.75 0 -1.421875 -0.0625q-0.671875 -0.0625 -1.265625 -0.203125l0 -1.328125q0.703125 0.21875 1.390625 0.328125q0.703125 0.109375 1.390625 0.109375q1.109375 0 1.609375 -0.3125q0.515625 -0.3125 0.515625 -0.96875q0 -0.171875 -0.078125 -0.3125q-0.078125 -0.140625 -0.265625 -0.265625q-0.1875 -0.140625 -0.515625 -0.265625q-0.328125 -0.140625 -0.84375 -0.28125q-0.46875 -0.140625 -0.859375 -0.3125q-0.375 -0.1875 -0.65625 -0.421875q-0.28125 -0.25 -0.4375 -0.578125q-0.15625 -0.34375 -0.15625 -0.78125q0 -0.515625 0.203125 -0.96875q0.21875 -0.453125 0.65625 -0.78125q0.453125 -0.34375 1.125 -0.53125q0.671875 -0.1875 1.578125 -0.1875q0.21875 0 0.484375 0.015625q0.265625 0.015625 0.546875 0.046875q0.28125 0.03125 0.5625 0.078125q0.28125 0.046875 0.5625 0.109375l0 1.203125z" fill-rule="nonzero"/><path fill="#000000" fill-opacity="0.0" d="m164.22047 49.67848c22.314072 0 33.470657 0.01574707 44.628143 0.03149414c11.157471 0.015750885 22.315842 0.031497955 44.6317 0.031497955" fill-rule="evenodd"/><path stroke="#000000" stroke-width="1.0" stroke-linejoin="round" stroke-linecap="butt" d="m164.22047 49.67848c22.314072 0 33.470657 0.01574707 44.628128 0.03149414c5.5787506 0.007873535 11.157715 0.015750885 18.13147 0.021656036c3.4868927 0.0029525757 7.322464 0.0054130554 11.681061 0.007133484l8.819183 0.0016098022" fill-rule="evenodd"/><path fill="#000000" stroke="#000000" stroke-width="1.0" stroke-linecap="butt" d="m247.48001 51.392105l4.5384064 -1.6509018l-4.537796 -1.6525612z" fill-rule="evenodd"/><path fill="#000000" fill-opacity="0.0" d="m413.697 49.67848c22.314056 0 33.470642 0.15747833 44.628113 0.31496048c11.157501 0.15747833 22.315857 0.31496048 44.631714 0.31496048" fill-rule="evenodd"/><path stroke="#000000" stroke-width="1.0" stroke-linejoin="round" stroke-linecap="butt" d="m413.69696 49.67848c22.314056 0 33.470703 0.15747833 44.628174 0.31496048c5.5787354 0.078739166 11.157684 0.15747833 18.13144 0.21653366c3.4868774 0.029529572 7.3224487 0.05413437 11.681061 0.07136154c2.1792908 0.008609772 4.4893494 0.015377045 6.951935 0.019989014l1.8672485 0.0016822815" fill-rule="evenodd"/><path fill="#000000" stroke="#000000" stroke-width="1.0" stroke-linecap="butt" d="m496.95532 51.954735l4.5395813 -1.6476517l-4.5365906 -1.6558113z" fill-rule="evenodd"/><path fill="#ffffff" d="m752.4304 18.498688l167.40161 0l0 62.362206l-167.40161 0z" fill-rule="evenodd"/><path stroke="#000000" stroke-width="1.0" stroke-linejoin="round" stroke-linecap="butt" d="m752.4304 18.498688l167.40161 0l0 62.362206l-167.40161 0z" fill-rule="evenodd"/><path fill="#000000" d="m768.2898 32.63604q0 0.609375 -0.09375 1.171875q-0.09375 0.5625 -0.3125 1.046875q-0.203125 0.46875 -0.546875 0.875q-0.328125 0.390625 -0.8125 0.671875q-0.46875 0.265625 -1.109375 0.421875q-0.640625 0.15625 -1.453125 0.15625l-1.828125 0l0 -8.5l2.203125 0q1.984375 0 2.96875 1.03125q0.984375 1.015625 0.984375 3.125zm-1.21875 0.078125q0 -0.90625 -0.171875 -1.53125q-0.171875 -0.625 -0.515625 -1.0q-0.34375 -0.390625 -0.875 -0.5625q-0.515625 -0.171875 -1.21875 -0.171875l-0.984375 0l0 6.53125l0.859375 0q2.90625 0 2.90625 -3.265625zm8.249756 0.65625q0 0.234375 -0.015625 0.40625q0 0.15625 -0.015625 0.296875l-4.578125 0q0 1.0 0.546875 1.546875q0.5625 0.53125 1.625 0.53125q0.28125 0 0.5625 -0.015625q0.296875 -0.03125 0.5625 -0.0625q0.265625 -0.046875 0.5 -0.09375q0.25 -0.046875 0.453125 -0.109375l0 0.9375q-0.453125 0.125 -1.046875 0.203125q-0.578125 0.078125 -1.203125 0.078125q-0.828125 0 -1.4375 -0.21875q-0.609375 -0.234375 -1.0 -0.65625q-0.390625 -0.4375 -0.578125 -1.0625q-0.171875 -0.625 -0.171875 -1.421875q0 -0.6875 0.1875 -1.296875q0.203125 -0.625 0.578125 -1.09375q0.390625 -0.46875 0.9375 -0.734375q0.5625 -0.28125 1.265625 -0.28125q0.671875 0 1.203125 0.21875q0.53125 0.21875 0.890625 0.609375q0.359375 0.390625 0.546875 0.953125q0.1875 0.5625 0.1875 1.265625zm-1.1875 -0.171875q0.03125 -0.421875 -0.078125 -0.78125q-0.109375 -0.375 -0.328125 -0.625q-0.21875 -0.265625 -0.546875 -0.40625q-0.3125 -0.15625 -0.75 -0.15625q-0.359375 0 -0.671875 0.15625q-0.3125 0.140625 -0.53125 0.40625q-0.21875 0.25 -0.359375 0.625q-0.125 0.359375 -0.15625 0.78125l3.421875 0zm8.577881 0.390625q0 0.875 -0.25 1.53125q-0.234375 0.65625 -0.671875 1.09375q-0.421875 0.421875 -1.015625 0.640625q-0.578125 0.203125 -1.265625 0.203125q-0.3125 0 -0.625 -0.03125q-0.296875 -0.03125 -0.625 -0.109375l0 2.734375l-1.125 0l0 -9.203125l1.0 0l0.078125 1.09375q0.484375 -0.671875 1.03125 -0.9375q0.5625 -0.28125 1.203125 -0.28125q0.5625 0 0.984375 0.234375q0.421875 0.234375 0.703125 0.671875q0.296875 0.421875 0.4375 1.03125q0.140625 0.59375 0.140625 1.328125zm-1.15625 0.0625q0 -0.515625 -0.078125 -0.9375q-0.078125 -0.4375 -0.25 -0.734375q-0.15625 -0.3125 -0.40625 -0.484375q-0.25 -0.171875 -0.609375 -0.171875q-0.203125 0 -0.4375 0.0625q-0.21875 0.0625 -0.453125 0.234375q-0.234375 0.15625 -0.5 0.421875q-0.265625 0.265625 -0.5625 0.65625l0 3.15625q0.3125 0.140625 0.65625 0.21875q0.34375 0.0625 0.671875 0.0625q0.921875 0 1.4375 -0.609375q0.53125 -0.625 0.53125 -1.875zm5.468506 1.28125q0.21875 0 0.421875 0.09375q0.203125 0.078125 0.34375 0.234375q0.140625 0.140625 0.21875 0.34375q0.09375 0.1875 0.09375 0.421875q0 0.21875 -0.09375 0.421875q-0.078125 0.1875 -0.21875 0.34375q-0.140625 0.140625 -0.34375 0.21875q-0.203125 0.078125 -0.421875 0.078125q-0.21875 0 -0.421875 -0.078125q-0.1875 -0.078125 -0.34375 -0.21875q-0.140625 -0.15625 -0.234375 -0.34375q-0.078125 -0.203125 -0.078125 -0.421875q0 -0.234375 0.078125 -0.421875q0.09375 -0.203125 0.234375 -0.34375q0.15625 -0.15625 0.34375 -0.234375q0.203125 -0.09375 0.421875 -0.09375zm17.671326 -1.34375q0 0.875 -0.25 1.53125q-0.234375 0.65625 -0.671875 1.09375q-0.421875 0.421875 -1.015625 0.640625q-0.578125 0.203125 -1.265625 0.203125q-0.3125 0 -0.625 -0.03125q-0.296875 -0.03125 -0.625 -0.109375l0 2.734375l-1.125 0l0 -9.203125l1.0 0l0.078125 1.09375q0.484375 -0.671875 1.03125 -0.9375q0.5625 -0.28125 1.203125 -0.28125q0.5625 0 0.984375 0.234375q0.421875 0.234375 0.703125 0.671875q0.296875 0.421875 0.4375 1.03125q0.140625 0.59375 0.140625 1.328125zm-1.15625 0.0625q0 -0.515625 -0.078125 -0.9375q-0.078125 -0.4375 -0.25 -0.734375q-0.15625 -0.3125 -0.40625 -0.484375q-0.25 -0.171875 -0.609375 -0.171875q-0.203125 0 -0.4375 0.0625q-0.21875 0.0625 -0.453125 0.234375q-0.234375 0.15625 -0.5 0.421875q-0.265625 0.265625 -0.5625 0.65625l0 3.15625q0.3125 0.140625 0.65625 0.21875q0.34375 0.0625 0.671875 0.0625q0.921875 0 1.4375 -0.609375q0.53125 -0.625 0.53125 -1.875zm7.093506 3.328125l-0.015625 -0.875q-0.546875 0.53125 -1.09375 0.765625q-0.546875 0.21875 -1.15625 0.21875q-0.546875 0 -0.953125 -0.140625q-0.390625 -0.140625 -0.65625 -0.390625q-0.25 -0.25 -0.375 -0.578125q-0.125 -0.34375 -0.125 -0.75q0 -0.984375 0.734375 -1.53125q0.734375 -0.5625 2.171875 -0.5625l1.34375 0l0 -0.5625q0 -0.578125 -0.375 -0.921875q-0.359375 -0.359375 -1.125 -0.359375q-0.546875 0 -1.09375 0.125q-0.53125 0.125 -1.109375 0.34375l0 -1.015625q0.21875 -0.078125 0.484375 -0.15625q0.265625 -0.078125 0.546875 -0.125q0.296875 -0.0625 0.609375 -0.09375q0.328125 -0.046875 0.65625 -0.046875q0.59375 0 1.0625 0.140625q0.484375 0.125 0.8125 0.390625q0.328125 0.265625 0.5 0.671875q0.171875 0.40625 0.171875 0.953125l0 4.5l-1.015625 0zm-0.125 -2.96875l-1.4375 0q-0.421875 0 -0.734375 0.078125q-0.296875 0.078125 -0.5 0.234375q-0.1875 0.15625 -0.28125 0.375q-0.09375 0.21875 -0.09375 0.5q0 0.1875 0.0625 0.359375q0.0625 0.171875 0.1875 0.3125q0.125 0.125 0.328125 0.203125q0.21875 0.078125 0.515625 0.078125q0.390625 0 0.890625 -0.234375q0.515625 -0.234375 1.0625 -0.75l0 -1.15625zm3.5310059 -3.5625l1.03125 0l0.03125 1.203125q0.578125 -0.703125 1.140625 -1.015625q0.5625 -0.3125 1.140625 -0.3125q1.015625 0 1.53125 0.65625q0.53125 0.65625 0.484375 1.953125l-1.140625 0q0.015625 -0.859375 -0.25 -1.234375q-0.265625 -0.390625 -0.796875 -0.390625q-0.21875 0 -0.453125 0.078125q-0.234375 0.078125 -0.484375 0.265625q-0.234375 0.171875 -0.515625 0.453125q-0.265625 0.28125 -0.578125 0.671875l0 4.203125l-1.140625 0l0 -6.53125zm12.23407 4.75q0 0.34375 -0.125 0.625q-0.109375 0.265625 -0.3125 0.484375q-0.203125 0.203125 -0.46875 0.359375q-0.265625 0.140625 -0.578125 0.25q-0.296875 0.09375 -0.625 0.125q-0.3125 0.046875 -0.609375 0.046875q-0.671875 0 -1.234375 -0.0625q-0.546875 -0.046875 -1.078125 -0.171875l0 -1.046875q0.5625 0.15625 1.125 0.25q0.578125 0.078125 1.140625 0.078125q0.8125 0 1.203125 -0.21875q0.390625 -0.21875 0.390625 -0.625q0 -0.1875 -0.0625 -0.3125q-0.0625 -0.140625 -0.234375 -0.265625q-0.15625 -0.140625 -0.5 -0.265625q-0.34375 -0.140625 -0.9375 -0.3125q-0.4375 -0.140625 -0.8125 -0.296875q-0.375 -0.171875 -0.65625 -0.390625q-0.265625 -0.234375 -0.421875 -0.53125q-0.15625 -0.3125 -0.15625 -0.734375q0 -0.265625 0.125 -0.59375q0.125 -0.328125 0.4375 -0.609375q0.3125 -0.28125 0.828125 -0.46875q0.515625 -0.1875 1.296875 -0.1875q0.390625 0 0.859375 0.046875q0.46875 0.046875 0.96875 0.140625l0 1.015625q-0.53125 -0.125 -1.015625 -0.1875q-0.46875 -0.0625 -0.828125 -0.0625q-0.421875 0 -0.71875 0.0625q-0.28125 0.0625 -0.46875 0.1875q-0.171875 0.109375 -0.25 0.265625q-0.078125 0.140625 -0.078125 0.3125q0 0.1875 0.0625 0.328125q0.078125 0.140625 0.265625 0.28125q0.1875 0.125 0.515625 0.265625q0.328125 0.125 0.859375 0.28125q0.59375 0.171875 0.984375 0.359375q0.390625 0.1875 0.640625 0.421875q0.25 0.21875 0.359375 0.515625q0.109375 0.28125 0.109375 0.640625zm7.671631 -1.828125q0 0.234375 -0.015625 0.40625q0 0.15625 -0.015625 0.296875l-4.578125 0q0 1.0 0.546875 1.546875q0.5625 0.53125 1.625 0.53125q0.28125 0 0.5625 -0.015625q0.296875 -0.03125 0.5625 -0.0625q0.265625 -0.046875 0.5 -0.09375q0.25 -0.046875 0.453125 -0.109375l0 0.9375q-0.453125 0.125 -1.046875 0.203125q-0.578125 0.078125 -1.203125 0.078125q-0.828125 0 -1.4375 -0.21875q-0.609375 -0.234375 -1.0 -0.65625q-0.390625 -0.4375 -0.578125 -1.0625q-0.171875 -0.625 -0.171875 -1.421875q0 -0.6875 0.1875 -1.296875q0.203125 -0.625 0.578125 -1.09375q0.390625 -0.46875 0.9375 -0.734375q0.5625 -0.28125 1.265625 -0.28125q0.671875 0 1.203125 0.21875q0.53125 0.21875 0.890625 0.609375q0.359375 0.390625 0.546875 0.953125q0.1875 0.5625 0.1875 1.265625zm-1.1875 -0.171875q0.03125 -0.421875 -0.078125 -0.78125q-0.109375 -0.375 -0.328125 -0.625q-0.21875 -0.265625 -0.546875 -0.40625q-0.3125 -0.15625 -0.75 -0.15625q-0.359375 0 -0.671875 0.15625q-0.3125 0.140625 -0.53125 0.40625q-0.21875 0.25 -0.359375 0.625q-0.125 0.359375 -0.15625 0.78125l3.421875 0zm3.2653809 -2.75l1.03125 0l0.03125 1.203125q0.578125 -0.703125 1.140625 -1.015625q0.5625 -0.3125 1.140625 -0.3125q1.015625 0 1.53125 0.65625q0.53125 0.65625 0.484375 1.953125l-1.140625 0q0.015625 -0.859375 -0.25 -1.234375q-0.265625 -0.390625 -0.796875 -0.390625q-0.21875 0 -0.453125 0.078125q-0.234375 0.078125 -0.484375 0.265625q-0.234375 0.171875 -0.515625 0.453125q-0.265625 0.28125 -0.578125 0.671875l0 4.203125l-1.140625 0l0 -6.53125z" fill-rule="nonzero"/><path fill="#000000" d="m769.0554 71.53979l-1.359375 0l1.0625 -6.375l0.40625 -2.4374962l-0.765625 1.4218712l-2.3125 4.0625l-0.953125 0l-0.671875 -3.90625l-0.15625 -1.5781212l-0.546875 2.5468712l-1.421875 6.265625l-1.328125 0l2.546875 -10.218746l1.59375 0l0.609375 3.8437462l0.171875 1.296875l0.703125 -1.296875l2.203125 -3.8437462l1.765625 0l-1.546875 10.218746zm6.390625 -7.937496q0.515625 0 0.96875 0.0625q0.46875 0.0625 0.890625 0.1875l1.234375 -0.296875l-0.890625 4.374996q-0.03125 0.15625 -0.0625 0.40625q-0.03125 0.234375 -0.078125 0.640625q-0.046875 0.40625 -0.125 1.03125q-0.0625 0.625 -0.15625 1.53125l-1.28125 0l0.1875 -1.8125q-0.53125 0.9375 -1.3125 1.453125q-0.765625 0.5 -1.65625 0.5q-0.5625 0 -0.984375 -0.1875q-0.421875 -0.1875 -0.703125 -0.53125q-0.265625 -0.359375 -0.40625 -0.84375q-0.125 -0.484375 -0.125 -1.078125q0 -1.125 0.296875 -2.109375q0.296875 -0.984375 0.859375 -1.71875q0.578125 -0.75 1.40625 -1.171875q0.84375 -0.4374962 1.9375 -0.4374962zm-3.125 5.312496q0 0.734375 0.25 1.15625q0.265625 0.421875 0.84375 0.421875q0.34375 0 0.671875 -0.15625q0.34375 -0.15625 0.65625 -0.421875q0.328125 -0.28125 0.609375 -0.640625q0.28125 -0.375 0.515625 -0.796875q0.25 -0.4375 0.421875 -0.890625q0.171875 -0.46875 0.265625 -0.9375l0.3125 -1.609375q-0.359375 -0.15625 -0.75 -0.234375q-0.390625 -0.09375 -0.71875 -0.09375q-0.640625 0 -1.125 0.21875q-0.46875 0.21875 -0.8125 0.578125q-0.34375 0.34375 -0.5625 0.796875q-0.21875 0.4375 -0.34375 0.90625q-0.125 0.46875 -0.1875 0.921875q-0.046875 0.4375 -0.046875 0.78125zm13.8125 2.09375q-0.75 0.296875 -1.5 0.46875q-0.75 0.171875 -1.53125 0.171875q-0.734375 0 -1.203125 -0.171875q-0.46875 -0.1875 -0.703125 -0.59375q-0.234375 -0.421875 -0.25 -1.078125q0 -0.671875 0.1875 -1.625l1.5625 -7.687496l1.390625 0l-1.53125 7.687496q-0.140625 0.6875 -0.1875 1.140625q-0.03125 0.4375 0.046875 0.703125q0.09375 0.25 0.296875 0.359375q0.21875 0.09375 0.5625 0.09375q0.578125 0 1.28125 -0.15625q0.703125 -0.171875 1.578125 -0.53125l0 1.21875zm8.609375 0.421875q-0.5 0.125 -0.984375 0.171875q-0.46875 0.046875 -0.84375 0.046875q-0.796875 0 -1.375 -0.171875q-0.5625 -0.1875 -0.890625 -0.5625q-0.328125 -0.390625 -0.40625 -0.984375q-0.078125 -0.609375 0.09375 -1.484375l0.71875 -3.609375l-2.1875 0l0.21875 -1.1406212l2.1875 0l0.4375 -2.15625l1.4375 -0.359375l-0.515625 2.515625l3.53125 0l-0.234375 1.1406212l-3.515625 0l-0.734375 3.65625q-0.109375 0.546875 -0.09375 0.921875q0.03125 0.375 0.1875 0.625q0.171875 0.234375 0.484375 0.34375q0.3125 0.109375 0.796875 0.109375q0.296875 0 0.734375 -0.046875q0.4375 -0.0625 0.953125 -0.1875l0 1.171875zm5.4375 0.203125q-0.578125 0 -0.96875 -0.046875q-0.375 -0.046875 -0.71875 -0.140625l-0.65625 3.296875l-1.359375 0l1.484375 -7.453125q0.03125 -0.140625 0.0625 -0.375q0.046875 -0.25 0.09375 -0.65625q0.046875 -0.421875 0.109375 -1.03125q0.078125 -0.625 0.171875 -1.5312462l1.28125 0l-0.1875 1.8124962q0.53125 -0.953125 1.296875 -1.453125q0.765625 -0.4999962 1.671875 -0.4999962q0.5625 0 0.96875 0.1875q0.421875 0.1875 0.6875 0.5312462q0.28125 0.34375 0.40625 0.84375q0.140625 0.484375 0.140625 1.078125q0 1.125 -0.296875 2.109375q-0.28125 0.984375 -0.859375 1.734375q-0.5625 0.734375 -1.40625 1.171875q-0.84375 0.421875 -1.921875 0.421875zm3.109375 -5.3125q0 -0.75 -0.25 -1.15625q-0.25 -0.421875 -0.828125 -0.421875q-0.34375 0 -0.6875 0.15625q-0.328125 0.15625 -0.65625 0.4375q-0.3125 0.265625 -0.609375 0.640625q-0.28125 0.359375 -0.515625 0.796875q-0.234375 0.421875 -0.40625 0.890625q-0.171875 0.453125 -0.265625 0.90625l-0.328125 1.625q0.375 0.15625 0.765625 0.25q0.390625 0.078125 0.71875 0.078125q0.640625 0 1.109375 -0.21875q0.484375 -0.21875 0.8125 -0.5625q0.34375 -0.359375 0.5625 -0.8125q0.21875 -0.453125 0.34375 -0.921875q0.140625 -0.46875 0.1875 -0.90625q0.046875 -0.4375 0.046875 -0.78125zm7.34375 -2.7187462q0.515625 0 0.96875 0.0625q0.46875 0.0625 0.890625 0.1875l1.234375 -0.296875l-0.890625 4.374996q-0.03125 0.15625 -0.0625 0.40625q-0.03125 0.234375 -0.078125 0.640625q-0.046875 0.40625 -0.125 1.03125q-0.0625 0.625 -0.15625 1.53125l-1.28125 0l0.1875 -1.8125q-0.53125 0.9375 -1.3125 1.453125q-0.765625 0.5 -1.65625 0.5q-0.5625 0 -0.984375 -0.1875q-0.421875 -0.1875 -0.703125 -0.53125q-0.265625 -0.359375 -0.40625 -0.84375q-0.125 -0.484375 -0.125 -1.078125q0 -1.125 0.296875 -2.109375q0.296875 -0.984375 0.859375 -1.71875q0.578125 -0.75 1.40625 -1.171875q0.84375 -0.4374962 1.9375 -0.4374962zm-3.125 5.312496q0 0.734375 0.25 1.15625q0.265625 0.421875 0.84375 0.421875q0.34375 0 0.671875 -0.15625q0.34375 -0.15625 0.65625 -0.421875q0.328125 -0.28125 0.609375 -0.640625q0.28125 -0.375 0.515625 -0.796875q0.25 -0.4375 0.421875 -0.890625q0.171875 -0.46875 0.265625 -0.9375l0.3125 -1.609375q-0.359375 -0.15625 -0.75 -0.234375q-0.390625 -0.09375 -0.71875 -0.09375q-0.640625 0 -1.125 0.21875q-0.46875 0.21875 -0.8125 0.578125q-0.34375 0.34375 -0.5625 0.796875q-0.21875 0.4375 -0.34375 0.90625q-0.125 0.46875 -0.1875 0.921875q-0.046875 0.4375 -0.046875 0.78125zm8.328125 -1.625q0.03125 -0.140625 0.0625 -0.375q0.03125 -0.25 0.078125 -0.65625q0.046875 -0.421875 0.109375 -1.03125q0.078125 -0.625 0.171875 -1.5312462l1.28125 0l-0.1875 1.8124962q0.265625 -0.40625 0.578125 -0.75q0.328125 -0.359375 0.703125 -0.625q0.390625 -0.2656212 0.84375 -0.4218712q0.453125 -0.15625 1.0 -0.15625q1.28125 0 1.765625 0.8124962q0.5 0.796875 0.171875 2.3125l-1.390625 0q0.125 -0.53125 0.125 -0.90625q0 -0.375 -0.109375 -0.609375q-0.109375 -0.234375 -0.3125 -0.328125q-0.203125 -0.109375 -0.5 -0.109375q-0.5625 0 -1.09375 0.34375q-0.53125 0.328125 -0.96875 0.890625q-0.4375 0.546875 -0.765625 1.234375q-0.3125 0.6875 -0.453125 1.375l-0.59375 2.96875l-1.375 0l0.859375 -4.25zm14.765625 -2.28125q-0.71875 -0.171875 -1.28125 -0.25q-0.5625 -0.078125 -1.0 -0.078125q-0.53125 0 -0.921875 0.09375q-0.390625 0.078125 -0.640625 0.234375q-0.25 0.15625 -0.375 0.390625q-0.109375 0.21875 -0.109375 0.484375q0 0.203125 0.09375 0.359375q0.09375 0.140625 0.28125 0.28125q0.203125 0.140625 0.515625 0.28125q0.328125 0.125 0.8125 0.265625q0.5625 0.1875 0.96875 0.390625q0.40625 0.203125 0.65625 0.453125q0.265625 0.25 0.375 0.5625q0.125 0.296875 0.125 0.6875q0 0.609375 -0.265625 1.078125q-0.265625 0.46875 -0.75 0.796875q-0.46875 0.3125 -1.140625 0.484375q-0.671875 0.15625 -1.46875 0.15625q-0.75 0 -1.421875 -0.0625q-0.671875 -0.0625 -1.265625 -0.203125l0 -1.328125q0.703125 0.21875 1.390625 0.328125q0.703125 0.109375 1.390625 0.109375q1.109375 0 1.609375 -0.3125q0.515625 -0.3125 0.515625 -0.96875q0 -0.171875 -0.078125 -0.3125q-0.078125 -0.140625 -0.265625 -0.265625q-0.1875 -0.140625 -0.515625 -0.265625q-0.328125 -0.140625 -0.84375 -0.28125q-0.46875 -0.140625 -0.859375 -0.3125q-0.375 -0.1875 -0.65625 -0.421875q-0.28125 -0.25 -0.4375 -0.578125q-0.15625 -0.34375 -0.15625 -0.78125q0 -0.515625 0.203125 -0.96875q0.21875 -0.453125 0.65625 -0.78125q0.453125 -0.3437462 1.125 -0.5312462q0.671875 -0.1875 1.578125 -0.1875q0.21875 0 0.484375 0.015625q0.265625 0.015625 0.546875 0.046875q0.28125 0.03125 0.5625 0.078125q0.28125 0.046875 0.5625 0.109375l0 1.2031212zm3.46875 3.046875q-0.046875 0.203125 -0.0625 0.390625q-0.015625 0.171875 -0.015625 0.34375q0 0.84375 0.5 1.296875q0.515625 0.453125 1.578125 0.453125q0.6875 0 1.359375 -0.09375q0.671875 -0.109375 1.203125 -0.234375l0 1.109375q-0.578125 0.15625 -1.3125 0.25q-0.734375 0.109375 -1.484375 0.109375q-1.65625 0 -2.453125 -0.734375q-0.78125 -0.75 -0.78125 -2.140625q0 -1.078125 0.328125 -2.03125q0.34375 -0.953125 0.9375 -1.671875q0.59375 -0.71875 1.40625 -1.1249962q0.828125 -0.421875 1.78125 -0.421875q0.671875 0 1.1875 0.15625q0.515625 0.15625 0.875 0.4374962q0.359375 0.265625 0.546875 0.640625q0.1875 0.359375 0.1875 0.796875q0 0.5625 -0.234375 1.015625q-0.234375 0.453125 -0.765625 0.78125q-0.515625 0.3125 -1.34375 0.5q-0.8125 0.171875 -1.96875 0.171875l-1.46875 0zm1.453125 -1.046875q0.859375 0 1.421875 -0.109375q0.578125 -0.109375 0.90625 -0.28125q0.328125 -0.1875 0.453125 -0.421875q0.140625 -0.234375 0.140625 -0.484375q0 -0.21875 -0.09375 -0.40625q-0.078125 -0.203125 -0.265625 -0.34375q-0.171875 -0.15625 -0.453125 -0.234375q-0.28125 -0.09375 -0.65625 -0.09375q-0.5 0 -0.921875 0.171875q-0.421875 0.171875 -0.765625 0.484375q-0.328125 0.296875 -0.59375 0.734375q-0.25 0.4375 -0.421875 0.984375l1.25 0zm6.703125 0.28125q0.03125 -0.140625 0.0625 -0.375q0.03125 -0.25 0.078125 -0.65625q0.046875 -0.421875 0.109375 -1.03125q0.078125 -0.625 0.171875 -1.5312462l1.28125 0l-0.1875 1.8124962q0.265625 -0.40625 0.578125 -0.75q0.328125 -0.359375 0.703125 -0.625q0.390625 -0.2656212 0.84375 -0.4218712q0.453125 -0.15625 1.0 -0.15625q1.28125 0 1.765625 0.8124962q0.5 0.796875 0.171875 2.3125l-1.390625 0q0.125 -0.53125 0.125 -0.90625q0 -0.375 -0.109375 -0.609375q-0.109375 -0.234375 -0.3125 -0.328125q-0.203125 -0.109375 -0.5 -0.109375q-0.5625 0 -1.09375 0.34375q-0.53125 0.328125 -0.96875 0.890625q-0.4375 0.546875 -0.765625 1.234375q-0.3125 0.6875 -0.453125 1.375l-0.59375 2.96875l-1.375 0l0.859375 -4.25z" fill-rule="nonzero"/><path fill="#000000" fill-opacity="0.0" d="m663.17346 50.32002l89.25989 -0.62992096" fill-rule="evenodd"/><path stroke="#000000" stroke-width="1.0" stroke-linejoin="round" stroke-linecap="butt" d="m663.17346 50.320015l83.26001 -0.5875778" fill-rule="evenodd"/><path fill="#000000" stroke="#000000" stroke-width="1.0" stroke-linecap="butt" d="m746.4451 51.38413l4.526306 -1.6837196l-4.5496216 -1.6196632z" fill-rule="evenodd"/></g></svg>